<svg xmlns="http://www.w3.org/2000/svg" xmlns:xlink="http://www.w3.org/1999/xlink" width="150" zoomAndPan="magnify" viewBox="0 0 112.5 112.499997" height="150" preserveAspectRatio="xMidYMid meet" version="1.2"><defs><clipPath id="ecf32eb5a8"><path d="M 4 0 L 108.640625 0 L 108.640625 112 L 4 112 Z M 4 0 "/></clipPath><clipPath id="8778d834dc"><path d="M 4 15 L 108.640625 15 L 108.640625 54 L 4 54 Z M 4 15 "/></clipPath><clipPath id="f92e746a62"><path d="M 4 31 L 108.640625 31 L 108.640625 112 L 4 112 Z M 4 31 "/></clipPath><clipPath id="fb010c2c50"><path d="M 53.199219 49.851562 L 86.800781 49.851562 L 86.800781 83.453125 L 53.199219 83.453125 Z M 53.199219 49.851562 "/></clipPath><clipPath id="3509931f11"><path d="M 70 49.851562 C 60.722656 49.851562 53.199219 57.375 53.199219 66.652344 C 53.199219 75.933594 60.722656 83.453125 70 83.453125 C 79.28125 83.453125 86.800781 75.933594 86.800781 66.652344 C 86.800781 57.375 79.28125 49.851562 70 49.851562 Z M 70 49.851562 "/></clipPath></defs><g id="5b2361a137"><g clip-rule="nonzero" clip-path="url(#ecf32eb5a8)"><path style=" stroke:none;fill-rule:nonzero;fill:#ffa30f;fill-opacity:1;" d="M 84.882812 54.25 Z M 49.898438 0.09375 L 26.148438 5.066406 L 18.785156 11.332031 L 13.566406 17.585938 C 8.625 23.785156 5.789062 28.414062 5.046875 31.472656 C 3.921875 35.1875 4.351562 38.609375 6.328125 41.726562 C 7.207031 43.894531 11.050781 47.820312 17.863281 53.515625 L 34.25 53.144531 L 40.511719 48.910156 L 42.902344 53.515625 L 46.21875 56.644531 L 42.535156 61.621094 L 51.375 75.433594 L 48.242188 85.933594 L 57.816406 110.988281 L 72.914062 111.90625 L 79.359375 101.777344 L 84.882812 96.804688 L 83.777344 91.644531 L 91.878906 85.566406 L 90.589844 68.621094 L 107.714844 47.621094 L 108.636719 41.171875 L 97.402344 41.910156 L 78.992188 14.832031 L 81.015625 9.855469 L 69.601562 9.488281 L 62.238281 7.460938 L 57.816406 12.25 L 48.613281 6.726562 Z M 49.898438 0.09375 "/></g><g clip-rule="nonzero" clip-path="url(#8778d834dc)"><path style=" stroke:none;fill-rule:nonzero;fill:#e2910c;fill-opacity:1;" d="M 44.535156 26.882812 L 45.027344 27.027344 L 45.027344 27.390625 C 44.914062 27.269531 44.769531 27.121094 44.59375 26.941406 C 44.574219 26.921875 44.554688 26.902344 44.53125 26.882812 Z M 18.71875 15.40625 L 18.570312 15.410156 C 18.1875 15.429688 17.769531 15.582031 17.324219 15.863281 C 17.175781 15.957031 16.796875 16.316406 16.179688 16.941406 C 15.691406 17.167969 15.355469 17.34375 15.171875 17.472656 C 15.101562 17.503906 14.992188 17.617188 14.847656 17.8125 C 14.640625 18.144531 14.507812 18.542969 14.445312 19.015625 C 14.417969 19.265625 14.4375 19.625 14.503906 20.09375 C 14.355469 20.460938 14.289062 20.679688 14.304688 20.742188 C 14.277344 20.753906 14.324219 20.851562 14.433594 21.023438 C 14.601562 21.273438 14.878906 21.449219 15.269531 21.546875 C 15.308594 21.550781 15.347656 21.554688 15.386719 21.554688 C 15.492188 21.554688 15.605469 21.535156 15.734375 21.488281 C 15.882812 21.402344 16.058594 21.269531 16.269531 21.089844 C 16.28125 21.082031 16.316406 21.070312 16.371094 21.0625 L 17.453125 21.4375 C 17.578125 21.464844 17.6875 21.480469 17.789062 21.480469 C 17.828125 21.480469 17.863281 21.480469 17.894531 21.476562 C 18.277344 21.398438 18.601562 21.097656 18.875 20.566406 L 20.355469 22.109375 C 20.429688 24.675781 20.511719 27.191406 20.597656 29.652344 C 17.230469 29.761719 14.230469 29.835938 11.59375 29.871094 C 11.554688 29.765625 11.519531 29.675781 11.488281 29.59375 C 11.386719 29.355469 11.324219 29.210938 11.300781 29.15625 C 11.273438 29.109375 11.25 29.085938 11.226562 29.078125 C 11.191406 29.082031 11.164062 29.097656 11.144531 29.128906 C 11.121094 29.164062 11.109375 29.203125 11.105469 29.246094 L 11.097656 29.878906 L 11.09375 29.878906 C 10.929688 29.878906 10.765625 29.882812 10.605469 29.882812 L 10.113281 28.964844 C 10.042969 28.84375 10 28.777344 9.984375 28.761719 C 9.953125 28.730469 9.933594 28.714844 9.917969 28.714844 L 9.914062 28.714844 C 9.851562 28.769531 9.824219 28.882812 9.839844 29.054688 C 9.875 29.398438 9.90625 29.675781 9.929688 29.890625 C 9.558594 29.894531 9.195312 29.894531 8.839844 29.898438 C 8.832031 29.601562 8.828125 29.375 8.828125 29.21875 C 8.828125 28.8125 8.832031 28.410156 8.839844 28.011719 C 8.839844 27.929688 8.820312 27.886719 8.78125 27.875 L 8.765625 27.882812 C 8.761719 27.882812 8.746094 27.898438 8.722656 27.929688 C 8.703125 27.960938 8.679688 28.003906 8.660156 28.0625 C 8.335938 28.921875 8.109375 29.535156 7.972656 29.898438 C 7.964844 29.898438 7.953125 29.898438 7.945312 29.898438 C 7.101562 29.898438 6.308594 29.894531 5.5625 29.882812 C 5.335938 30.453125 5.164062 30.984375 5.046875 31.472656 C 3.921875 35.1875 4.351562 38.609375 6.328125 41.726562 C 6.804688 42.90625 8.160156 44.605469 10.390625 46.824219 C 12.265625 48.6875 14.753906 50.917969 17.863281 53.515625 L 31.910156 53.199219 C 33.300781 52.710938 34.90625 52.132812 36.730469 51.464844 L 40.511719 48.910156 L 41.398438 50.617188 C 41.832031 50.597656 42.328125 50.589844 42.886719 50.589844 C 43.511719 50.589844 44.210938 50.601562 44.984375 50.621094 C 51.164062 51.144531 56.214844 51.433594 60.128906 51.488281 C 61.046875 51.496094 61.941406 51.496094 62.8125 51.496094 C 68.914062 51.496094 73.910156 51.367188 77.800781 51.109375 C 80.746094 50.910156 83.617188 50.519531 86.417969 49.9375 L 90.167969 49.105469 C 92.5 48.511719 94.496094 47.847656 96.160156 47.117188 C 97.511719 46.519531 98.640625 45.875 99.546875 45.1875 C 99.746094 45.296875 99.964844 45.40625 100.203125 45.511719 C 100.75 45.679688 101.289062 45.832031 101.820312 45.964844 C 102.09375 46.054688 102.882812 46.210938 104.183594 46.433594 C 105.214844 46.585938 106.222656 46.664062 107.207031 46.664062 C 107.421875 46.664062 107.636719 46.660156 107.851562 46.652344 L 108.582031 41.53125 L 108.636719 41.171875 L 97.402344 41.910156 L 87.703125 27.644531 C 86.539062 27.578125 85.300781 27.527344 83.984375 27.492188 L 84.132812 27.414062 L 84.210938 27.085938 C 84.25 26.871094 84.261719 26.667969 84.242188 26.46875 C 84.226562 26.273438 84.183594 26.085938 84.113281 25.902344 L 83.988281 25.640625 C 83.757812 25.265625 83.488281 24.988281 83.175781 24.8125 C 83.0625 24.753906 82.9375 24.722656 82.800781 24.722656 C 82.753906 24.722656 82.703125 24.726562 82.648438 24.734375 C 82.511719 24.757812 82.292969 24.867188 81.996094 25.0625 C 81.914062 25.09375 81.847656 25.109375 81.796875 25.109375 C 81.792969 25.109375 81.789062 25.109375 81.785156 25.109375 C 81.738281 25.105469 81.695312 25.09375 81.648438 25.074219 C 81.320312 24.867188 81.109375 24.75 81.023438 24.726562 C 80.921875 24.691406 80.816406 24.671875 80.707031 24.671875 L 80.667969 24.671875 C 80.382812 24.707031 80.195312 24.8125 80.101562 24.996094 C 80.054688 25.097656 80.027344 25.207031 80.023438 25.320312 L 80.085938 26.113281 C 80.074219 26.160156 80.042969 26.21875 79.992188 26.28125 C 79.828125 26.40625 79.726562 26.503906 79.683594 26.582031 C 79.613281 26.699219 79.589844 26.816406 79.617188 26.941406 C 79.664062 27.121094 79.722656 27.289062 79.789062 27.445312 L 77.484375 27.507812 C 77.976562 27.015625 78.246094 26.582031 78.292969 26.203125 C 78.3125 26.046875 78.296875 25.898438 78.242188 25.761719 L 78.089844 25.5 C 77.960938 25.324219 77.664062 25.128906 77.203125 24.910156 C 76.964844 24.050781 76.761719 23.550781 76.589844 23.414062 C 76.445312 23.304688 76.277344 23.242188 76.082031 23.230469 C 76.070312 23.230469 76.054688 23.230469 76.039062 23.230469 C 75.90625 23.230469 75.703125 23.257812 75.425781 23.320312 C 75.417969 23.320312 75.40625 23.320312 75.398438 23.320312 C 75.316406 23.320312 75.242188 23.304688 75.171875 23.277344 C 75.121094 23.253906 75.078125 23.21875 75.039062 23.175781 C 74.59375 22.558594 74.335938 22.246094 74.257812 22.234375 C 74.039062 22.046875 73.8125 21.953125 73.585938 21.953125 C 73.582031 21.953125 73.578125 21.953125 73.574219 21.953125 L 73.546875 21.957031 C 73.183594 21.976562 72.824219 22.195312 72.46875 22.609375 C 72.335938 22.75 72.226562 22.894531 72.144531 23.035156 C 72 23.277344 71.855469 23.601562 71.710938 24.007812 C 71.660156 24.101562 71.59375 24.175781 71.507812 24.230469 C 71.460938 24.265625 71.394531 24.292969 71.308594 24.304688 C 71.046875 24.265625 70.835938 24.246094 70.675781 24.246094 C 70.605469 24.246094 70.546875 24.25 70.496094 24.257812 C 70.277344 24.316406 70.109375 24.417969 69.996094 24.550781 C 69.742188 24.820312 69.59375 25.140625 69.550781 25.515625 C 69.503906 25.660156 69.589844 26.085938 69.808594 26.804688 C 69.753906 26.878906 69.691406 26.921875 69.621094 26.933594 C 69.25 26.941406 69.058594 26.953125 69.054688 26.976562 C 68.96875 27.007812 68.917969 27.085938 68.90625 27.214844 C 69.164062 27.792969 69.609375 28.226562 70.238281 28.519531 L 70.234375 28.523438 L 64.882812 29.496094 C 64.816406 29.5 64.75 29.507812 64.683594 29.515625 C 64.710938 29.285156 64.742188 29.105469 64.769531 28.984375 C 64.816406 28.796875 64.867188 28.628906 64.917969 28.484375 C 65.097656 28.046875 65.191406 27.816406 65.191406 27.792969 C 65.214844 27.71875 65.203125 27.679688 65.15625 27.671875 L 65.152344 27.671875 L 65.128906 27.675781 C 65 27.765625 64.878906 27.851562 64.761719 27.941406 C 64.648438 28.03125 64.542969 28.121094 64.445312 28.214844 C 64.347656 28.304688 64.257812 28.398438 64.175781 28.488281 L 64.058594 28.628906 C 63.984375 28.722656 63.917969 28.820312 63.859375 28.914062 C 63.804688 29 63.753906 29.089844 63.707031 29.1875 L 63.644531 29.332031 C 63.609375 29.421875 63.578125 29.515625 63.550781 29.613281 L 63.546875 29.613281 C 63.53125 29.613281 63.515625 29.617188 63.5 29.617188 L 63.4375 29.117188 C 63.324219 28.386719 63.265625 27.988281 63.261719 27.914062 C 63.238281 27.792969 63.21875 27.734375 63.207031 27.734375 C 63.203125 27.734375 63.203125 27.734375 63.203125 27.734375 L 63.195312 27.746094 C 63.175781 27.855469 63.152344 28.070312 63.128906 28.382812 L 63.113281 28.554688 C 63.105469 28.675781 63.101562 28.785156 63.097656 28.886719 C 63.09375 29.003906 63.09375 29.140625 63.101562 29.296875 L 62.914062 29.101562 L 62.589844 28.8125 L 62.226562 28.527344 L 61.824219 28.242188 L 61.382812 27.964844 C 61.378906 27.964844 61.375 27.960938 61.371094 27.960938 L 61.359375 27.964844 C 61.339844 27.972656 61.355469 28.019531 61.402344 28.105469 C 61.921875 28.863281 62.222656 29.316406 62.300781 29.464844 C 62.339844 29.542969 62.375 29.617188 62.40625 29.695312 C 60.640625 29.808594 58.394531 29.910156 55.660156 30.003906 C 55.542969 30.03125 55.425781 30.058594 55.308594 30.085938 C 55.210938 29.875 55.085938 29.617188 54.945312 29.308594 C 54.859375 29.15625 54.789062 29.066406 54.738281 29.039062 L 54.738281 29.042969 C 54.730469 29.046875 54.734375 29.078125 54.742188 29.128906 C 54.824219 29.476562 54.890625 29.765625 54.941406 29.996094 C 54.953125 30.050781 54.964844 30.105469 54.976562 30.160156 L 54.972656 30.160156 C 54.8125 30.199219 54.652344 30.234375 54.496094 30.269531 C 54.445312 30.132812 54.394531 29.984375 54.339844 29.828125 C 54.316406 29.773438 54.277344 29.746094 54.226562 29.742188 L 54.21875 29.746094 C 54.199219 29.753906 54.183594 29.789062 54.167969 29.855469 L 54.085938 30.363281 C 53.921875 30.398438 53.757812 30.433594 53.597656 30.46875 C 53.648438 29.921875 53.683594 29.578125 53.707031 29.4375 C 53.710938 29.359375 53.699219 29.320312 53.675781 29.320312 C 53.671875 29.320312 53.671875 29.320312 53.667969 29.320312 L 53.664062 29.320312 C 53.648438 29.328125 53.625 29.359375 53.597656 29.417969 C 53.445312 29.792969 53.289062 30.175781 53.125 30.574219 L 53.121094 30.574219 C 50.226562 31.210938 48.230469 31.578125 47.140625 31.679688 L 45.953125 31.574219 C 45.9375 31.410156 45.921875 31.257812 45.90625 31.109375 C 45.902344 31.09375 45.902344 31.074219 45.902344 31.058594 L 45.898438 31.058594 C 47.007812 30.035156 47.714844 29.335938 48.027344 28.960938 L 48.027344 28.964844 L 48.148438 29.003906 C 48.207031 29.023438 48.265625 29.042969 48.324219 29.058594 C 48.492188 29.105469 48.679688 29.125 48.882812 29.125 C 49.03125 29.121094 49.121094 29.113281 49.164062 29.101562 C 49.226562 29.09375 49.367188 29.011719 49.589844 28.851562 C 49.882812 28.804688 50.074219 28.765625 50.15625 28.730469 C 50.339844 28.648438 50.433594 28.542969 50.4375 28.417969 C 50.441406 28.3125 50.40625 28.214844 50.332031 28.125 C 50.269531 28.035156 50.160156 27.960938 50.007812 27.894531 C 49.992188 27.886719 49.976562 27.867188 49.964844 27.839844 C 49.902344 27.390625 49.847656 27.09375 49.804688 26.941406 C 49.789062 26.890625 49.773438 26.851562 49.761719 26.832031 L 49.660156 26.691406 C 49.578125 26.582031 49.476562 26.5 49.359375 26.453125 C 49.222656 26.40625 49.101562 26.378906 48.992188 26.378906 C 48.988281 26.378906 48.980469 26.378906 48.976562 26.382812 L 48.945312 26.382812 C 48.828125 26.382812 48.707031 26.410156 48.585938 26.464844 C 48.53125 26.480469 48.433594 26.5625 48.285156 26.707031 C 48.25 26.730469 48.226562 26.742188 48.210938 26.746094 C 48.203125 26.746094 48.195312 26.746094 48.191406 26.746094 L 47.773438 26.644531 C 47.757812 26.644531 47.738281 26.640625 47.722656 26.640625 C 47.699219 26.640625 47.675781 26.644531 47.648438 26.648438 C 47.511719 26.664062 47.367188 26.738281 47.21875 26.867188 C 47.078125 26.984375 46.980469 27.136719 46.917969 27.328125 C 46.90625 27.398438 46.902344 27.464844 46.90625 27.527344 L 46.964844 28.121094 C 46.957031 28.144531 46.945312 28.160156 46.933594 28.167969 C 46.851562 28.199219 46.78125 28.242188 46.726562 28.292969 C 46.6875 28.34375 46.671875 28.390625 46.671875 28.4375 C 46.675781 28.625 46.785156 28.769531 47 28.863281 L 45.828125 30.28125 C 45.699219 28.921875 45.609375 27.988281 45.558594 27.484375 L 45.53125 27.128906 L 45.527344 27.128906 C 45.640625 27.117188 45.742188 27.085938 45.832031 27.039062 C 45.878906 27.015625 45.960938 26.914062 46.078125 26.734375 C 46.503906 26.5625 46.730469 26.414062 46.761719 26.300781 C 46.792969 26.257812 46.816406 26.214844 46.835938 26.164062 C 46.851562 26.144531 46.863281 26.058594 46.867188 25.902344 C 46.863281 25.773438 46.832031 25.621094 46.773438 25.449219 C 46.90625 25.25 46.976562 25.132812 46.980469 25.105469 C 47.015625 25.035156 47.042969 24.972656 47.058594 24.914062 C 47.09375 24.808594 47.097656 24.699219 47.066406 24.59375 C 47.046875 24.488281 46.925781 24.242188 46.703125 23.863281 L 46.699219 23.171875 C 46.648438 22.996094 46.585938 22.871094 46.507812 22.808594 C 46.386719 22.691406 46.238281 22.59375 46.050781 22.515625 C 45.707031 22.398438 45.425781 22.335938 45.207031 22.328125 C 44.929688 22.128906 44.726562 21.996094 44.59375 21.933594 C 44.550781 21.910156 44.515625 21.894531 44.488281 21.886719 C 44.394531 21.863281 44.308594 21.851562 44.230469 21.851562 L 44.175781 21.855469 C 43.933594 21.875 43.722656 21.980469 43.539062 22.167969 C 43.433594 22.257812 43.269531 22.535156 43.046875 23.003906 C 42.992188 23.085938 42.945312 23.140625 42.902344 23.171875 C 42.855469 23.207031 42.800781 23.234375 42.742188 23.253906 C 42.476562 23.28125 42.292969 23.3125 42.199219 23.347656 C 42.070312 23.390625 41.945312 23.484375 41.820312 23.632812 C 41.636719 23.871094 41.46875 24.347656 41.316406 25.0625 C 41.128906 25.25 41.011719 25.390625 40.960938 25.476562 C 40.929688 25.5 40.921875 25.566406 40.9375 25.675781 C 40.972656 25.828125 41.078125 25.972656 41.265625 26.109375 C 41.417969 26.226562 41.683594 26.335938 42.066406 26.445312 C 42.355469 26.765625 42.550781 26.941406 42.648438 26.976562 C 42.808594 27.023438 42.953125 27.042969 43.082031 27.042969 C 43.1875 27.042969 43.28125 27.03125 43.363281 27.003906 C 43.460938 26.972656 43.550781 26.929688 43.636719 26.867188 C 43.707031 26.953125 43.792969 27.054688 43.898438 27.171875 C 44.488281 27.796875 44.863281 28.207031 45.027344 28.394531 L 45.027344 31.488281 C 44.191406 31.261719 43.453125 31.074219 42.816406 30.933594 L 42.8125 30.933594 C 42.796875 30.675781 42.683594 30.402344 42.480469 30.105469 C 42.40625 30 42.316406 29.925781 42.210938 29.875 C 42.167969 29.859375 42.121094 29.84375 42.074219 29.835938 C 41.914062 29.828125 41.792969 29.8125 41.714844 29.792969 C 41.527344 29.652344 41.28125 29.503906 40.976562 29.355469 C 40.824219 29.277344 40.648438 29.230469 40.445312 29.214844 L 40.402344 29.214844 C 40.265625 29.222656 40.140625 29.265625 40.027344 29.347656 C 39.984375 29.375 39.941406 29.40625 39.902344 29.4375 L 39.578125 29.746094 C 39.546875 29.769531 39.515625 29.785156 39.480469 29.792969 C 39.464844 29.796875 39.449219 29.796875 39.433594 29.796875 C 39.414062 29.796875 39.394531 29.796875 39.375 29.789062 L 38.855469 29.59375 C 38.753906 29.570312 38.679688 29.558594 38.625 29.558594 C 38.613281 29.554688 38.597656 29.554688 38.578125 29.554688 C 38.53125 29.554688 38.464844 29.5625 38.375 29.578125 C 38.273438 29.605469 38.175781 29.648438 38.085938 29.710938 C 37.976562 29.800781 37.910156 29.855469 37.894531 29.886719 L 37.730469 30.144531 C 37.640625 30.3125 37.585938 30.46875 37.566406 30.613281 L 37.570312 30.824219 L 37.589844 30.90625 C 35.75 31.066406 34.390625 31.148438 33.511719 31.148438 C 33.347656 31.148438 33.199219 31.144531 33.070312 31.136719 L 33.066406 31.140625 C 33.050781 30.90625 33.035156 30.679688 33.023438 30.46875 C 33.015625 30.394531 32.996094 30.316406 32.96875 30.234375 C 32.953125 30.191406 32.933594 30.167969 32.910156 30.160156 L 32.902344 30.160156 C 32.882812 30.167969 32.859375 30.199219 32.839844 30.25 C 32.828125 30.269531 32.730469 30.496094 32.550781 30.929688 C 32.53125 30.984375 32.511719 31.03125 32.492188 31.074219 C 32.335938 31.046875 32.179688 31.015625 32.027344 30.988281 C 31.980469 30.636719 31.945312 30.367188 31.914062 30.183594 C 31.878906 29.964844 31.855469 29.839844 31.847656 29.800781 C 31.832031 29.738281 31.808594 29.703125 31.789062 29.703125 C 31.785156 29.703125 31.785156 29.703125 31.785156 29.703125 L 31.777344 29.707031 C 31.753906 29.714844 31.738281 29.757812 31.722656 29.835938 C 31.675781 30.386719 31.640625 30.746094 31.625 30.914062 C 31.433594 30.878906 31.246094 30.84375 31.0625 30.8125 C 30.808594 30 30.644531 29.488281 30.574219 29.277344 C 30.375 28.722656 30.210938 28.25 30.082031 27.855469 C 30.011719 27.6875 29.960938 27.59375 29.929688 27.570312 C 29.898438 27.570312 29.890625 27.75 29.90625 28.113281 L 30.074219 30.632812 C 26.433594 29.980469 24.078125 29.625 23.003906 29.566406 C 22.726562 29.578125 22.453125 29.585938 22.179688 29.597656 C 22.027344 28.464844 21.988281 27.675781 22.054688 27.230469 C 22.070312 27.046875 22.148438 26.894531 22.285156 26.773438 L 23.726562 25.644531 C 23.855469 25.511719 23.902344 25.378906 23.867188 25.242188 C 23.664062 24.871094 23.402344 24.65625 23.085938 24.597656 C 23.085938 24.59375 23.082031 24.589844 23.074219 24.589844 C 23.015625 24.589844 22.703125 24.847656 22.136719 25.359375 C 22.042969 25.40625 21.96875 25.429688 21.902344 25.429688 C 21.859375 25.429688 21.824219 25.421875 21.792969 25.398438 C 21.769531 25.375 21.753906 25.339844 21.75 25.296875 C 21.707031 24.3125 21.644531 23.523438 21.558594 22.925781 C 21.503906 22.582031 21.398438 22.289062 21.246094 22.039062 C 20.972656 21.679688 20.652344 21.300781 20.285156 20.902344 L 20.289062 20.902344 C 20.570312 20.921875 20.777344 20.941406 20.898438 20.964844 L 22.410156 21.335938 C 22.5625 21.363281 22.6875 21.375 22.777344 21.375 C 22.789062 21.375 22.796875 21.375 22.804688 21.375 C 23.335938 21.277344 23.621094 20.941406 23.664062 20.375 C 23.625 20.132812 23.390625 19.800781 22.960938 19.371094 C 22.925781 19.300781 22.90625 18.953125 22.898438 18.324219 C 22.871094 18.195312 22.8125 18.050781 22.714844 17.890625 C 22.582031 17.691406 22.390625 17.542969 22.140625 17.445312 C 22.050781 17.410156 21.785156 17.371094 21.347656 17.335938 C 21.238281 17.304688 21.140625 17.261719 21.058594 17.203125 L 20.15625 16.03125 C 20.019531 15.882812 19.886719 15.765625 19.746094 15.679688 C 19.449219 15.5 19.109375 15.410156 18.71875 15.40625 Z M 18.71875 15.40625 "/></g><g clip-rule="nonzero" clip-path="url(#f92e746a62)"><path style=" stroke:none;fill-rule:nonzero;fill:#b67409;fill-opacity:1;" d="M 90.578125 31.875 C 89.925781 32.292969 89.160156 32.847656 88.285156 33.539062 C 85.808594 34.3125 84.453125 34.851562 84.21875 35.152344 C 83.808594 35.511719 83.554688 35.886719 83.460938 36.277344 C 83.40625 36.492188 83.550781 37.082031 83.902344 38.042969 C 83.925781 38.191406 83.851562 38.339844 83.675781 38.484375 C 83.460938 38.648438 83.113281 38.761719 82.636719 38.824219 C 80.621094 38.867188 79.433594 38.925781 79.082031 38.992188 C 78.144531 39.15625 77.425781 39.382812 76.925781 39.667969 C 76.597656 39.820312 76.296875 40.058594 76.019531 40.382812 C 75.605469 41.703125 75.273438 42.441406 75.027344 42.585938 C 74.707031 42.746094 74.472656 42.832031 74.320312 42.839844 C 72.621094 43 71.71875 43.109375 71.613281 43.167969 C 71.367188 43.257812 71.097656 43.378906 70.796875 43.53125 C 70.667969 43.585938 70.527344 43.671875 70.375 43.78125 C 69.058594 43.390625 68.226562 43.195312 67.867188 43.195312 C 67.824219 43.195312 67.785156 43.195312 67.753906 43.203125 C 61.722656 46.273438 58.355469 47.808594 57.648438 47.808594 C 57.578125 47.808594 57.535156 47.792969 57.515625 47.765625 L 52.207031 46.738281 C 50.863281 46.894531 49.34375 46.972656 47.652344 46.972656 C 45.335938 46.972656 42.691406 46.824219 39.726562 46.53125 L 27.855469 47.550781 C 26.351562 47.363281 25.007812 47.195312 23.828125 47.054688 C 23.832031 47.039062 23.835938 47.027344 23.839844 47.011719 C 23.996094 46.46875 23.949219 45.90625 23.703125 45.328125 C 23.058594 44.578125 22.078125 43.949219 20.757812 43.441406 C 20.683594 43.347656 20.734375 42.882812 20.910156 42.046875 C 20.839844 41.710938 20.671875 41.4375 20.402344 41.21875 C 20.175781 41.019531 19.320312 40.613281 17.839844 40.007812 L 18 38.429688 C 17.992188 38.171875 17.871094 37.902344 17.632812 37.625 C 17.542969 37.523438 17.410156 37.417969 17.234375 37.304688 C 16.285156 36.847656 15.753906 36.554688 15.636719 36.421875 C 14.996094 35.125 14.578125 34.414062 14.375 34.289062 C 13.96875 34 13.449219 33.832031 12.8125 33.792969 L 12.589844 33.800781 C 12.03125 33.824219 11.445312 33.980469 10.835938 34.261719 C 10.542969 34.394531 9.863281 34.859375 8.796875 35.664062 C 8.632812 35.769531 8.480469 35.839844 8.335938 35.875 C 8.132812 35.917969 7.972656 35.9375 7.851562 35.9375 C 7.8125 35.9375 7.773438 35.933594 7.742188 35.929688 C 6.726562 35.679688 6.070312 35.554688 5.777344 35.554688 C 5.75 35.554688 5.722656 35.554688 5.703125 35.558594 C 5.679688 35.554688 5.652344 35.554688 5.625 35.554688 C 5.363281 35.554688 5.023438 35.628906 4.605469 35.777344 C 4.550781 35.796875 4.496094 35.820312 4.445312 35.839844 C 4.523438 37.910156 5.152344 39.871094 6.328125 41.726562 C 6.804688 42.90625 8.160156 44.605469 10.390625 46.824219 C 12.265625 48.6875 14.753906 50.917969 17.863281 53.515625 L 34.25 53.144531 L 40.511719 48.910156 L 42.902344 53.515625 L 46.21875 56.644531 L 42.535156 61.621094 L 51.375 75.433594 L 48.242188 85.933594 L 57.816406 110.988281 L 72.914062 111.90625 L 79.359375 101.777344 L 84.882812 96.804688 L 83.777344 91.644531 L 91.878906 85.566406 L 90.589844 68.621094 L 107.714844 47.621094 L 108.582031 41.53125 L 108.636719 41.171875 L 97.402344 41.910156 Z M 90.578125 31.875 "/></g><path style=" stroke:none;fill-rule:nonzero;fill:#fed655;fill-opacity:1;" d="M 35.632812 6.214844 C 34.910156 6.230469 34.308594 6.464844 33.832031 6.910156 C 33.351562 7.355469 33.101562 7.914062 33.082031 8.585938 C 33.085938 8.804688 33.113281 9.015625 33.175781 9.21875 L 33.285156 9.511719 C 33.371094 9.699219 33.480469 9.875 33.613281 10.039062 C 34.03125 10.535156 34.589844 10.835938 35.289062 10.9375 C 35.40625 10.949219 35.519531 10.957031 35.628906 10.957031 C 36.21875 10.957031 36.738281 10.792969 37.191406 10.464844 C 37.730469 10.078125 38.050781 9.558594 38.160156 8.910156 L 38.183594 8.585938 C 38.167969 7.914062 37.917969 7.355469 37.4375 6.910156 C 36.957031 6.464844 36.355469 6.230469 35.632812 6.214844 Z M 35.632812 6.214844 "/><path style=" stroke:none;fill-rule:nonzero;fill:#feb844;fill-opacity:1;" d="M 40.730469 8.609375 L 40.675781 8.609375 C 40.558594 8.609375 40.429688 8.65625 40.28125 8.746094 L 39.027344 10.046875 L 37.914062 10.90625 C 37.902344 10.96875 37.925781 11.019531 37.992188 11.0625 C 38.542969 11.332031 38.949219 11.503906 39.214844 11.578125 C 39.304688 11.597656 39.386719 11.609375 39.457031 11.609375 C 39.476562 11.609375 39.496094 11.605469 39.515625 11.605469 L 40.230469 11.46875 C 40.300781 11.460938 40.363281 11.457031 40.414062 11.457031 C 40.457031 11.457031 40.492188 11.460938 40.519531 11.464844 L 41.6875 11.929688 C 41.785156 11.96875 41.945312 12.003906 42.171875 12.039062 C 42.242188 12.050781 42.324219 12.058594 42.417969 12.058594 C 42.558594 12.058594 42.722656 12.042969 42.910156 12.015625 C 43.09375 11.980469 43.40625 11.894531 43.847656 11.757812 C 43.898438 11.742188 44 11.734375 44.148438 11.730469 C 44.261719 11.738281 44.339844 11.75 44.382812 11.761719 C 45.0625 11.949219 45.441406 12.046875 45.515625 12.046875 C 45.839844 12.097656 46.109375 12.125 46.335938 12.125 C 46.386719 12.125 46.4375 12.121094 46.480469 12.121094 C 46.777344 12.105469 47.0625 12.050781 47.335938 11.953125 C 47.941406 11.617188 48.378906 11.402344 48.640625 11.308594 C 48.769531 11.28125 48.902344 11.269531 49.035156 11.269531 C 49.042969 11.269531 49.054688 11.269531 49.066406 11.269531 C 49.574219 11.34375 50 11.382812 50.332031 11.382812 C 50.578125 11.375 50.828125 11.332031 51.082031 11.265625 C 51.457031 11.160156 51.960938 10.964844 52.59375 10.675781 C 52.832031 10.542969 52.890625 10.445312 52.773438 10.378906 C 52.6875 10.324219 52.460938 10.289062 52.085938 10.277344 L 49.96875 10.3125 L 49.769531 10.195312 C 49.230469 9.878906 48.667969 9.503906 48.078125 9.078125 C 47.800781 8.929688 47.582031 8.84375 47.417969 8.824219 C 47.339844 8.820312 47.261719 8.816406 47.191406 8.816406 C 47.042969 8.816406 46.90625 8.828125 46.789062 8.859375 C 46.410156 8.949219 45.984375 9.082031 45.511719 9.257812 C 45.402344 9.285156 45.3125 9.296875 45.238281 9.296875 C 45.222656 9.296875 45.210938 9.296875 45.199219 9.296875 C 45.113281 9.292969 45.015625 9.257812 44.898438 9.199219 C 44.507812 8.949219 44.269531 8.804688 44.195312 8.765625 C 44.015625 8.6875 43.875 8.640625 43.765625 8.625 C 43.703125 8.617188 43.636719 8.609375 43.570312 8.609375 C 43.398438 8.609375 43.222656 8.640625 43.039062 8.699219 C 42.882812 8.75 42.609375 8.886719 42.21875 9.109375 C 42.140625 9.144531 42.078125 9.164062 42.03125 9.164062 C 42.027344 9.164062 42.019531 9.164062 42.011719 9.160156 C 41.945312 9.160156 41.859375 9.136719 41.757812 9.089844 C 41.441406 8.867188 41.222656 8.730469 41.109375 8.683594 C 41.011719 8.636719 40.882812 8.613281 40.730469 8.609375 Z M 27.035156 8.742188 L 26.984375 8.742188 C 26.847656 8.746094 26.664062 8.796875 26.433594 8.902344 C 26.289062 8.976562 26.046875 9.136719 25.703125 9.378906 C 25.578125 9.449219 25.472656 9.492188 25.390625 9.511719 C 25.3125 9.527344 25.246094 9.535156 25.199219 9.535156 C 25.179688 9.535156 25.167969 9.535156 25.152344 9.53125 C 24.878906 9.476562 24.625 9.449219 24.386719 9.449219 C 24.386719 9.449219 24.382812 9.449219 24.382812 9.449219 C 24.375 9.449219 24.367188 9.449219 24.359375 9.449219 C 24.230469 9.449219 24.070312 9.484375 23.871094 9.558594 C 23.605469 9.675781 23.40625 9.800781 23.265625 9.933594 C 22.742188 10.480469 22.441406 10.789062 22.363281 10.863281 C 22.207031 11.011719 22.121094 11.089844 22.105469 11.089844 C 21.8125 11.136719 21.511719 11.195312 21.207031 11.269531 C 20.917969 11.351562 20.601562 11.453125 20.253906 11.574219 L 19.601562 11.585938 L 20.105469 11.625 L 19.277344 11.910156 C 19.140625 11.96875 19.066406 12.015625 19.054688 12.042969 C 19.011719 12.199219 19.105469 12.304688 19.332031 12.359375 L 23.09375 12.65625 L 25.726562 12.992188 C 25.8125 13 25.886719 13 25.953125 13 C 25.980469 13 26.003906 13 26.023438 13 C 26.261719 12.988281 26.457031 12.949219 26.605469 12.882812 C 26.757812 12.8125 26.957031 12.675781 27.207031 12.480469 C 27.496094 12.410156 27.730469 12.324219 27.914062 12.226562 C 28.179688 12.066406 28.328125 11.902344 28.355469 11.738281 C 28.410156 11.582031 28.417969 11.40625 28.382812 11.210938 C 28.355469 11.0625 28.273438 10.808594 28.140625 10.445312 C 28.125 9.886719 28.070312 9.523438 27.984375 9.359375 C 27.785156 8.960938 27.46875 8.753906 27.035156 8.742188 Z M 67.707031 10.464844 C 67.6875 10.464844 67.675781 10.464844 67.667969 10.472656 L 67.585938 10.472656 C 67.367188 10.480469 67.191406 10.527344 67.0625 10.613281 L 66.234375 11.382812 C 66.214844 11.386719 66.191406 11.390625 66.160156 11.390625 C 66.136719 11.390625 66.105469 11.390625 66.078125 11.386719 C 65.652344 11.265625 65.355469 11.207031 65.179688 11.207031 C 65.160156 11.207031 65.144531 11.207031 65.128906 11.207031 C 64.757812 11.214844 64.417969 11.296875 64.113281 11.453125 C 63.746094 11.640625 63.3125 12.171875 62.808594 13.046875 C 62.746094 13.089844 62.648438 13.117188 62.511719 13.125 C 62.144531 13.101562 61.875 13.09375 61.703125 13.09375 C 61.625 13.09375 61.566406 13.09375 61.527344 13.097656 C 61.339844 13.109375 61.105469 13.160156 60.824219 13.246094 C 60.566406 13.335938 60.140625 13.730469 59.550781 14.421875 C 59.539062 14.421875 59.53125 14.421875 59.523438 14.421875 C 59.351562 14.421875 59.125 14.453125 58.84375 14.515625 C 58.6875 14.558594 58.554688 14.617188 58.445312 14.6875 L 53.695312 15.96875 L 58.277344 15.773438 C 58.601562 15.808594 59.179688 15.960938 60.007812 16.222656 C 60.285156 16.277344 60.535156 16.304688 60.757812 16.304688 C 60.78125 16.304688 60.800781 16.304688 60.824219 16.304688 C 60.835938 16.304688 60.84375 16.304688 60.855469 16.304688 C 61.054688 16.304688 61.320312 16.246094 61.644531 16.132812 C 61.742188 16.101562 62.082031 15.9375 62.660156 15.640625 C 62.792969 15.585938 62.898438 15.550781 62.972656 15.539062 C 63.011719 15.53125 63.054688 15.527344 63.101562 15.527344 C 63.1875 15.527344 63.28125 15.539062 63.390625 15.5625 C 63.984375 15.746094 64.347656 15.847656 64.476562 15.871094 C 64.761719 15.917969 64.988281 15.945312 65.164062 15.945312 C 65.214844 15.945312 65.265625 15.941406 65.308594 15.9375 C 65.515625 15.925781 65.726562 15.886719 65.9375 15.820312 L 67.210938 15.300781 C 67.234375 15.296875 67.28125 15.292969 67.34375 15.292969 C 67.542969 15.292969 67.945312 15.324219 68.542969 15.394531 C 68.691406 15.390625 68.824219 15.378906 68.941406 15.367188 C 69.140625 15.339844 69.265625 15.3125 69.320312 15.289062 C 69.554688 15.21875 69.753906 15.125 69.921875 15.003906 C 70.253906 14.769531 70.445312 14.441406 70.5 14.023438 C 70.53125 13.8125 70.523438 13.582031 70.480469 13.324219 C 70.46875 13.078125 70.363281 12.789062 70.171875 12.460938 C 69.867188 11.875 69.519531 11.417969 69.125 11.089844 C 68.929688 10.921875 68.722656 10.789062 68.503906 10.6875 L 68.167969 10.558594 C 67.933594 10.496094 67.78125 10.464844 67.707031 10.464844 Z M 35.925781 12.542969 C 35.910156 12.542969 35.894531 12.542969 35.878906 12.542969 L 35.832031 12.546875 C 35.695312 12.550781 35.511719 12.597656 35.277344 12.691406 C 35.183594 12.738281 34.925781 12.898438 34.5 13.175781 C 34.40625 13.234375 34.28125 13.269531 34.117188 13.289062 C 33.960938 13.28125 33.835938 13.253906 33.75 13.21875 C 33.125 12.921875 32.636719 12.726562 32.285156 12.628906 C 32.125 12.59375 31.96875 12.578125 31.824219 12.578125 C 31.808594 12.574219 31.792969 12.574219 31.777344 12.574219 C 31.664062 12.574219 31.511719 12.601562 31.3125 12.65625 C 30.871094 12.835938 30.589844 13.003906 30.464844 13.167969 C 30.183594 13.488281 30.011719 13.8125 29.953125 14.148438 C 29.863281 14.140625 29.769531 14.132812 29.679688 14.132812 C 29.605469 14.132812 29.535156 14.136719 29.460938 14.144531 C 29.183594 14.183594 28.988281 14.226562 28.875 14.28125 C 28.464844 14.492188 28.152344 14.707031 27.9375 14.921875 C 27.628906 15.4375 27.863281 15.8125 28.640625 16.046875 C 28.777344 16.101562 29.179688 16.152344 29.851562 16.195312 C 29.917969 16.203125 30.003906 16.203125 30.097656 16.203125 C 30.351562 16.203125 30.699219 16.1875 31.144531 16.152344 C 31.152344 16.152344 31.160156 16.152344 31.167969 16.152344 C 31.230469 16.152344 31.324219 16.15625 31.453125 16.167969 C 31.628906 16.207031 31.933594 16.316406 32.371094 16.492188 C 32.589844 16.542969 32.789062 16.570312 32.96875 16.570312 C 33 16.570312 33.03125 16.566406 33.0625 16.566406 C 33.328125 16.554688 33.609375 16.492188 33.90625 16.382812 C 34.078125 16.308594 34.472656 16.085938 35.082031 15.710938 C 35.148438 15.671875 35.269531 15.644531 35.445312 15.617188 C 35.488281 15.617188 35.53125 15.613281 35.574219 15.613281 C 35.71875 15.613281 35.859375 15.628906 35.996094 15.660156 L 37.378906 15.984375 C 37.527344 16.007812 37.679688 16.019531 37.839844 16.019531 C 37.9375 16.019531 38.039062 16.015625 38.140625 16.003906 C 38.371094 15.988281 38.640625 15.9375 38.949219 15.859375 C 39.089844 15.824219 39.519531 15.675781 40.238281 15.410156 C 40.417969 15.355469 40.566406 15.324219 40.6875 15.3125 C 40.738281 15.300781 40.808594 15.296875 40.90625 15.296875 C 40.996094 15.296875 41.105469 15.300781 41.238281 15.3125 C 41.9375 15.402344 42.5 15.460938 42.921875 15.484375 C 43.058594 15.492188 43.199219 15.496094 43.339844 15.496094 C 43.488281 15.496094 43.640625 15.492188 43.792969 15.484375 C 44.820312 15.390625 46.070312 15.183594 47.535156 14.859375 C 47.554688 14.828125 47.40625 14.789062 47.082031 14.742188 L 45.007812 14.699219 C 44.734375 14.6875 44.386719 14.640625 43.960938 14.554688 C 43.960938 14.554688 43.957031 14.554688 43.953125 14.554688 C 43.832031 14.554688 43.050781 14.195312 41.613281 13.472656 C 41.347656 13.367188 41.105469 13.300781 40.882812 13.273438 C 40.835938 13.261719 40.785156 13.257812 40.722656 13.257812 C 40.613281 13.257812 40.476562 13.269531 40.308594 13.296875 L 39.136719 13.683594 C 39.023438 13.707031 38.925781 13.71875 38.851562 13.71875 C 38.796875 13.71875 38.75 13.714844 38.714844 13.703125 C 38.613281 13.683594 38.480469 13.636719 38.308594 13.550781 C 37.726562 13.167969 37.308594 12.925781 37.046875 12.824219 C 36.871094 12.746094 36.628906 12.667969 36.320312 12.589844 C 36.171875 12.558594 36.039062 12.542969 35.925781 12.542969 Z M 35.925781 12.542969 "/><g clip-rule="nonzero" clip-path="url(#fb010c2c50)"><g clip-rule="nonzero" clip-path="url(#3509931f11)"><path style=" stroke:none;fill-rule:nonzero;fill:#b67409;fill-opacity:1;" d="M 53.199219 49.851562 L 86.800781 49.851562 L 86.800781 83.453125 L 53.199219 83.453125 Z M 53.199219 49.851562 "/></g></g></g></svg>