<svg xmlns="http://www.w3.org/2000/svg" xmlns:xlink="http://www.w3.org/1999/xlink" width="300" zoomAndPan="magnify" viewBox="0 0 224.87999 225" height="300" preserveAspectRatio="xMidYMid meet" version="1.2"><defs><clipPath id="63ac238952"><path d="M 0 37.585938 L 224.761719 37.585938 L 224.761719 187.507812 L 0 187.507812 Z M 0 37.585938 "/></clipPath><clipPath id="cc3e9cc3b8"><path d="M 0 37.585938 L 75 37.585938 L 75 187.507812 L 0 187.507812 Z M 0 37.585938 "/></clipPath><clipPath id="ce9dd3fb43"><path d="M 93 37.585938 L 224.761719 37.585938 L 224.761719 187.507812 L 93 187.507812 Z M 93 37.585938 "/></clipPath><clipPath id="0e09d9fb28"><path d="M 16.988281 99.238281 L 53.59375 99.238281 L 53.59375 135.84375 L 16.988281 135.84375 Z M 16.988281 99.238281 "/></clipPath><clipPath id="817f07224a"><path d="M 35.289062 99.238281 C 25.183594 99.238281 16.988281 107.433594 16.988281 117.542969 C 16.988281 127.648438 25.183594 135.84375 35.289062 135.84375 C 45.398438 135.84375 53.59375 127.648438 53.59375 117.542969 C 53.59375 107.433594 45.398438 99.238281 35.289062 99.238281 Z M 35.289062 99.238281 "/></clipPath></defs><g id="2989ba254f"><g clip-rule="nonzero" clip-path="url(#63ac238952)"><path style=" stroke:none;fill-rule:evenodd;fill:#ce1126;fill-opacity:1;" d="M 0.0703125 37.585938 L 224.808594 37.585938 L 224.808594 187.507812 L 0.0703125 187.507812 Z M 0.0703125 37.585938 "/></g><g clip-rule="nonzero" clip-path="url(#cc3e9cc3b8)"><path style=" stroke:none;fill-rule:evenodd;fill:#007a5e;fill-opacity:1;" d="M 0.0703125 37.585938 L 74.984375 37.585938 L 74.984375 187.507812 L 0.0703125 187.507812 Z M 0.0703125 37.585938 "/></g><g clip-rule="nonzero" clip-path="url(#ce9dd3fb43)"><path style=" stroke:none;fill-rule:evenodd;fill:#fcd116;fill-opacity:1;" d="M 149.898438 37.585938 L 224.808594 37.585938 L 224.808594 187.507812 L 149.898438 187.507812 Z M 112.441406 92.554688 L 116.90625 106.398438 L 131.4375 106.371094 L 119.660156 114.894531 L 124.179688 128.714844 L 112.441406 120.148438 L 100.699219 128.714844 L 105.21875 114.894531 L 93.441406 106.371094 L 107.976562 106.398438 Z M 112.441406 92.554688 "/></g><g clip-rule="nonzero" clip-path="url(#0e09d9fb28)"><g clip-rule="nonzero" clip-path="url(#817f07224a)"><path style=" stroke:none;fill-rule:nonzero;fill:#007a5e;fill-opacity:1;" d="M 16.988281 99.238281 L 53.59375 99.238281 L 53.59375 135.84375 L 16.988281 135.84375 Z M 16.988281 99.238281 "/></g></g></g></svg>