<svg xmlns="http://www.w3.org/2000/svg" xmlns:xlink="http://www.w3.org/1999/xlink" width="300" zoomAndPan="magnify" viewBox="0 0 224.87999 225" height="300" preserveAspectRatio="xMidYMid meet" version="1.2"><defs><clipPath id="76b23cca15"><path d="M 0 33.933594 L 224.761719 33.933594 L 224.761719 87 L 0 87 Z M 0 33.933594 "/></clipPath><clipPath id="bebbbb02f6"><path d="M 0 86 L 224.761719 86 L 224.761719 139 L 0 139 Z M 0 86 "/></clipPath><clipPath id="9c97011888"><path d="M 0 80 L 224.761719 80 L 224.761719 89 L 0 89 Z M 0 80 "/></clipPath><clipPath id="7c8a50599f"><path d="M 0 138 L 224.761719 138 L 224.761719 191.347656 L 0 191.347656 Z M 0 138 "/></clipPath><clipPath id="521a948683"><path d="M 0 136 L 224.761719 136 L 224.761719 145 L 0 145 Z M 0 136 "/></clipPath></defs><g id="18cc06d205"><g clip-rule="nonzero" clip-path="url(#76b23cca15)"><path style=" stroke:none;fill-rule:nonzero;fill:#000000;fill-opacity:1;" d="M 224.792969 86.40625 L 0.0898438 86.40625 L 0.0898438 33.933594 L 224.792969 33.933594 L 224.792969 86.40625 "/></g><g clip-rule="nonzero" clip-path="url(#bebbbb02f6)"><path style=" stroke:none;fill-rule:nonzero;fill:#bc0001;fill-opacity:1;" d="M 224.792969 138.875 L 0.0898438 138.875 L 0.0898438 86.40625 L 224.792969 86.40625 L 224.792969 138.875 "/></g><g clip-rule="nonzero" clip-path="url(#9c97011888)"><path style=" stroke:none;fill-rule:nonzero;fill:#f2f2f2;fill-opacity:1;" d="M 224.792969 88.179688 L 0.0898438 88.179688 L 0.0898438 80.945312 L 224.792969 80.945312 L 224.792969 88.179688 "/></g><g clip-rule="nonzero" clip-path="url(#7c8a50599f)"><path style=" stroke:none;fill-rule:nonzero;fill:#007d34;fill-opacity:1;" d="M 224.792969 191.347656 L 0.0898438 191.347656 L 0.0898438 138.875 L 224.792969 138.875 L 224.792969 191.347656 "/></g><g clip-rule="nonzero" clip-path="url(#521a948683)"><path style=" stroke:none;fill-rule:nonzero;fill:#f2f2f2;fill-opacity:1;" d="M 224.792969 144.335938 L 0.0898438 144.335938 L 0.0898438 136.925781 L 224.792969 136.925781 L 224.792969 144.335938 "/></g><path style=" stroke:none;fill-rule:nonzero;fill:#f2f2f2;fill-opacity:1;" d="M 94.316406 79.265625 C 95.117188 77.910156 93.945312 74.511719 92.007812 71.03125 C 89.804688 67.078125 80.109375 56.476562 80.109375 56.476562 C 80.109375 56.476562 84.492188 70.054688 86.695312 74.007812 C 88.648438 77.515625 91.175781 80.183594 92.8125 80.136719 L 139.410156 161.082031 L 140.914062 160.210938 L 94.316406 79.265625 "/><path style=" stroke:none;fill-rule:nonzero;fill:#000000;fill-opacity:1;" d="M 92.816406 80.128906 L 92.820312 80.132812 L 139.414062 161.066406 L 140.902344 160.207031 L 94.304688 79.265625 L 94.304688 79.261719 C 94.683594 78.625 94.636719 77.480469 94.179688 75.945312 C 93.757812 74.539062 93.003906 72.84375 92 71.035156 C 89.882812 67.238281 80.738281 57.175781 80.132812 56.515625 C 80.40625 57.363281 84.589844 70.207031 86.703125 74.003906 C 87.667969 75.734375 88.796875 77.292969 89.878906 78.398438 C 91.015625 79.550781 92.027344 80.152344 92.8125 80.128906 Z M 139.40625 161.09375 L 139.402344 161.085938 L 92.804688 80.148438 C 92.015625 80.167969 91 79.566406 89.867188 78.410156 C 88.78125 77.308594 87.652344 75.746094 86.6875 74.011719 C 84.507812 70.101562 80.144531 56.613281 80.101562 56.480469 L 80.085938 56.4375 L 80.117188 56.46875 C 80.214844 56.574219 89.839844 67.117188 92.015625 71.027344 C 93.023438 72.832031 93.777344 74.535156 94.199219 75.941406 C 94.660156 77.476562 94.703125 78.625 94.328125 79.265625 L 140.929688 160.214844 L 140.917969 160.21875 L 139.40625 161.09375 "/><path style=" stroke:none;fill-rule:nonzero;fill:#f2f2f2;fill-opacity:1;" d="M 132.109375 80.238281 C 133.683594 80.261719 136.039062 77.554688 138.089844 74.136719 C 140.414062 70.253906 144.769531 56.546875 144.769531 56.546875 C 144.769531 56.546875 135.199219 67.109375 132.871094 70.992188 C 130.808594 74.433594 129.753906 77.964844 130.609375 79.359375 L 83.726562 160.140625 L 85.226562 161.015625 L 132.109375 80.238281 "/><path style=" stroke:none;fill-rule:nonzero;fill:#000000;fill-opacity:1;" d="M 83.738281 160.136719 L 85.222656 161 L 132.101562 80.226562 L 132.109375 80.226562 C 132.113281 80.226562 132.121094 80.226562 132.128906 80.226562 C 132.863281 80.226562 133.824219 79.621094 134.914062 78.46875 C 135.921875 77.402344 137.015625 75.902344 138.078125 74.132812 C 140.3125 70.402344 144.472656 57.441406 144.746094 56.589844 C 144.148438 57.25 135.117188 67.269531 132.882812 70.996094 C 131.863281 72.695312 131.074219 74.453125 130.65625 75.945312 C 130.222656 77.507812 130.207031 78.683594 130.617188 79.355469 L 130.621094 79.359375 L 130.617188 79.367188 Z M 85.230469 161.027344 L 83.710938 160.140625 L 83.71875 160.132812 L 130.597656 79.359375 C 130.1875 78.683594 130.203125 77.5 130.636719 75.941406 C 131.054688 74.445312 131.84375 72.6875 132.863281 70.988281 C 135.164062 67.148438 144.667969 56.648438 144.761719 56.542969 L 144.792969 56.507812 L 144.78125 56.550781 C 144.734375 56.6875 140.398438 70.304688 138.097656 74.140625 C 137.03125 75.914062 135.9375 77.417969 134.929688 78.484375 C 133.835938 79.636719 132.867188 80.246094 132.128906 80.246094 C 132.125 80.246094 132.121094 80.246094 132.113281 80.246094 L 85.230469 161.027344 "/><path style=" stroke:none;fill-rule:nonzero;fill:#bc0001;fill-opacity:1;" d="M 136.503906 112.394531 C 136.503906 138.828125 118.449219 160.257812 112.417969 160.257812 C 106.453125 160.257812 88.332031 138.828125 88.332031 112.394531 C 88.332031 85.957031 106.707031 64.53125 112.417969 64.53125 C 117.945312 64.53125 136.503906 85.957031 136.503906 112.394531 "/><path style=" stroke:none;fill-rule:nonzero;fill:#f2f2f2;fill-opacity:1;" d="M 113.460938 64.621094 L 113.460938 106.90625 C 114.933594 103.003906 117.4375 95.003906 117.4375 85.765625 C 117.4375 76.527344 114.933594 68.523438 113.460938 64.621094 "/><path style=" stroke:none;fill-rule:nonzero;fill:#f2f2f2;fill-opacity:1;" d="M 111.316406 64.777344 C 109.835938 68.734375 107.398438 76.644531 107.398438 85.765625 C 107.398438 94.882812 109.835938 102.796875 111.316406 106.753906 L 111.316406 64.777344 "/><path style=" stroke:none;fill-rule:nonzero;fill:#f2f2f2;fill-opacity:1;" d="M 113.460938 118.4375 L 113.460938 160.722656 C 114.933594 156.820312 117.4375 148.820312 117.4375 139.582031 C 117.4375 130.34375 114.933594 122.339844 113.460938 118.4375 "/><path style=" stroke:none;fill-rule:nonzero;fill:#f2f2f2;fill-opacity:1;" d="M 111.316406 118.59375 C 109.835938 122.550781 107.398438 130.460938 107.398438 139.582031 C 107.398438 148.699219 109.835938 156.613281 111.316406 160.570312 L 111.316406 118.59375 "/><path style=" stroke:none;fill-rule:nonzero;fill:#f2f2f2;fill-opacity:1;" d="M 116.429688 112.550781 C 116.429688 116.136719 114.632812 119.042969 112.417969 119.042969 C 110.203125 119.042969 108.40625 116.136719 108.40625 112.550781 C 108.40625 108.96875 110.203125 106.0625 112.417969 106.0625 C 114.632812 106.0625 116.429688 108.96875 116.429688 112.550781 "/><path style=" stroke:none;fill-rule:nonzero;fill:#000000;fill-opacity:1;" d="M 131.492188 136.8125 C 134.449219 129.660156 136.503906 121.3125 136.503906 112.394531 C 136.503906 103.558594 134.429688 95.285156 131.464844 88.179688 C 128.515625 95.285156 126.460938 103.558594 126.460938 112.394531 C 126.460938 121.3125 128.527344 129.660156 131.492188 136.8125 "/><path style=" stroke:none;fill-rule:nonzero;fill:#000000;fill-opacity:1;" d="M 93.402344 136.914062 C 96.382812 129.742188 98.457031 121.355469 98.457031 112.394531 C 98.457031 103.515625 96.363281 95.203125 93.375 88.078125 C 90.402344 95.203125 88.332031 103.515625 88.332031 112.394531 C 88.332031 121.355469 90.414062 129.742188 93.402344 136.914062 "/></g></svg>