<svg xmlns="http://www.w3.org/2000/svg" xmlns:xlink="http://www.w3.org/1999/xlink" width="300" zoomAndPan="magnify" viewBox="0 0 224.87999 225" height="300" preserveAspectRatio="xMidYMid meet" version="1.2"><defs><clipPath id="770e875177"><path d="M 0 33.933594 L 224.761719 33.933594 L 224.761719 191.347656 L 0 191.347656 Z M 0 33.933594 "/></clipPath></defs><g id="5b1e568893"><g clip-rule="nonzero" clip-path="url(#770e875177)"><path style=" stroke:none;fill-rule:nonzero;fill:#e40001;fill-opacity:1;" d="M 224.792969 191.347656 L 0.0898438 191.347656 L 0.0898438 33.933594 L 224.792969 33.933594 L 224.792969 191.347656 "/></g><path style=" stroke:none;fill-rule:nonzero;fill:#007d34;fill-opacity:1;" d="M 98.542969 126.832031 L 107.957031 133.691406 L 92.722656 144.792969 Z M 99.371094 107.179688 L 95.773438 118.28125 L 80.535156 107.179688 Z M 118.261719 101.898438 L 106.621094 101.898438 L 112.441406 83.933594 Z M 144.34375 107.179688 L 129.109375 118.28125 L 125.511719 107.179688 Z M 132.15625 144.792969 L 116.921875 133.691406 L 126.339844 126.832031 L 126.378906 126.953125 Z M 104.910156 107.179688 L 119.972656 107.179688 L 124.625 121.546875 L 112.441406 130.425781 L 100.253906 121.546875 Z M 142.175781 158.625 L 130.820312 123.5625 L 160.554688 101.898438 L 123.796875 101.898438 L 112.441406 66.839844 L 101.082031 101.898438 L 64.324219 101.898438 L 94.0625 123.5625 L 82.703125 158.625 L 112.441406 136.957031 L 142.175781 158.625 "/><path style=" stroke:none;fill-rule:nonzero;fill:#000000;fill-opacity:1;" d="M 107.023438 101.605469 L 117.855469 101.605469 L 112.441406 84.886719 Z M 118.664062 102.191406 L 106.21875 102.191406 L 112.441406 82.984375 Z M 81.4375 107.472656 L 95.621094 117.808594 L 98.96875 107.472656 Z M 95.925781 118.757812 L 79.636719 106.886719 L 99.773438 106.886719 Z M 125.914062 107.472656 L 129.261719 117.808594 L 143.441406 107.472656 Z M 128.953125 118.757812 L 125.109375 106.886719 L 145.246094 106.886719 Z M 100.597656 121.433594 L 112.441406 130.0625 L 124.28125 121.433594 L 119.757812 107.472656 L 105.121094 107.472656 Z M 112.441406 130.789062 L 99.910156 121.660156 L 104.695312 106.886719 L 120.183594 106.886719 L 124.96875 121.660156 Z M 98.695312 127.304688 L 93.28125 144.023438 L 107.460938 133.691406 Z M 92.167969 145.558594 L 98.386719 126.355469 L 108.457031 133.691406 Z M 117.417969 133.691406 L 131.601562 144.023438 L 126.183594 127.304688 Z M 132.714844 145.558594 L 116.421875 133.691406 L 126.492188 126.355469 Z M 112.441406 136.59375 L 141.621094 157.855469 L 130.472656 123.453125 L 159.65625 102.191406 L 123.585938 102.191406 L 112.441406 67.789062 L 101.292969 102.191406 L 65.226562 102.191406 L 94.40625 123.453125 L 83.257812 157.855469 Z M 142.734375 159.390625 L 112.441406 137.320312 L 82.144531 159.390625 L 93.71875 123.675781 L 63.421875 101.605469 L 100.867188 101.605469 L 112.441406 65.890625 L 124.011719 101.605469 L 161.457031 101.605469 L 131.164062 123.675781 L 142.734375 159.390625 "/><path style=" stroke:none;fill-rule:nonzero;fill:#000000;fill-opacity:1;" d="M 124.875 102.191406 L 117.046875 102.191406 L 117.046875 101.605469 L 124.875 101.605469 L 124.875 102.191406 "/><path style=" stroke:none;fill-rule:nonzero;fill:#000000;fill-opacity:1;" d="M 101.609375 101.210938 L 99.179688 108.714844 L 98.605469 108.59375 L 101.074219 100.976562 L 101.609375 101.210938 "/><path style=" stroke:none;fill-rule:nonzero;fill:#000000;fill-opacity:1;" d="M 107.265625 100.851562 L 104.839844 108.347656 L 104.261719 108.226562 L 106.734375 100.601562 L 107.265625 100.851562 "/><path style=" stroke:none;fill-rule:nonzero;fill:#000000;fill-opacity:1;" d="M 129.011719 117.035156 L 131.4375 124.515625 L 130.902344 124.769531 L 128.4375 117.160156 L 129.011719 117.035156 "/><path style=" stroke:none;fill-rule:nonzero;fill:#000000;fill-opacity:1;" d="M 124.546875 120.355469 L 126.972656 127.84375 L 126.441406 128.09375 L 123.972656 120.480469 L 124.546875 120.355469 "/><path style=" stroke:none;fill-rule:nonzero;fill:#000000;fill-opacity:1;" d="M 113.652344 129.902344 L 107.214844 134.597656 L 106.855469 134.125 L 113.332031 129.414062 L 113.652344 129.902344 "/><path style=" stroke:none;fill-rule:nonzero;fill:#000000;fill-opacity:1;" d="M 118.273438 133.070312 L 111.773438 137.804688 L 111.414062 137.339844 L 117.910156 132.609375 L 118.273438 133.070312 "/><path style=" stroke:none;fill-rule:nonzero;fill:#000000;fill-opacity:1;" d="M 126.730469 107.472656 L 118.898438 107.472656 L 118.898438 106.886719 L 126.730469 106.886719 L 126.730469 107.472656 "/><path style=" stroke:none;fill-rule:nonzero;fill:#000000;fill-opacity:1;" d="M 101.019531 122.464844 L 94.625 117.808594 L 94.949219 117.316406 L 101.375 122 L 101.019531 122.464844 "/><path style=" stroke:none;fill-rule:nonzero;fill:#000000;fill-opacity:1;" d="M 99.066406 127.574219 L 92.671875 122.914062 L 92.996094 122.425781 L 99.421875 127.109375 L 99.066406 127.574219 "/></g></svg>