<svg xmlns="http://www.w3.org/2000/svg" xmlns:xlink="http://www.w3.org/1999/xlink" width="300" zoomAndPan="magnify" viewBox="0 0 224.87999 225" height="300" preserveAspectRatio="xMidYMid meet" version="1.2"><defs><clipPath id="d0e0067939"><path d="M 26 37.558594 L 224.761719 37.558594 L 224.761719 87 L 26 87 Z M 26 37.558594 "/></clipPath><clipPath id="66ce1ff36a"><path d="M 11 37.558594 L 224.761719 37.558594 L 224.761719 187.480469 L 11 187.480469 Z M 11 37.558594 "/></clipPath><clipPath id="04ec919f99"><path d="M 0 37.558594 L 224.761719 37.558594 L 224.761719 187.480469 L 0 187.480469 Z M 0 37.558594 "/></clipPath><clipPath id="6d77491612"><path d="M 24 137 L 224.761719 137 L 224.761719 187.480469 L 24 187.480469 Z M 24 137 "/></clipPath></defs><g id="604e745ddf"><g clip-rule="nonzero" clip-path="url(#d0e0067939)"><path style=" stroke:none;fill-rule:evenodd;fill:#cd1e25;fill-opacity:1;" d="M 26.890625 37.558594 L 224.804688 37.558594 L 224.804688 86.28125 L 132.816406 86.433594 L 132.816406 86.28125 L 94.003906 86.433594 L 26.890625 37.558594 "/></g><g clip-rule="nonzero" clip-path="url(#66ce1ff36a)"><path style=" stroke:none;fill-rule:evenodd;fill:#ffffff;fill-opacity:1;" d="M 224.804688 137.851562 L 92.367188 137.851562 L 24.949219 187.480469 L 11.3125 187.480469 L 89.511719 129.910156 L 224.804688 129.910156 Z M 224.804688 86.28125 L 224.804688 93.320312 L 94.003906 93.320312 L 17.152344 37.558594 L 26.890625 37.558594 L 94.003906 86.433594 L 132.816406 86.28125 L 132.816406 86.433594 L 224.804688 86.28125 "/></g><g clip-rule="nonzero" clip-path="url(#04ec919f99)"><path style=" stroke:none;fill-rule:evenodd;fill:#2b9a40;fill-opacity:1;" d="M 0.0742188 158.839844 L 65.84375 110.421875 L 0.0742188 62.589844 L 0.0742188 37.558594 L 17.152344 37.558594 L 94.003906 93.320312 L 224.804688 93.320312 L 224.804688 129.910156 L 89.511719 129.910156 L 11.3125 187.480469 L 0.0742188 187.480469 L 0.0742188 158.839844 "/></g><path style=" stroke:none;fill-rule:evenodd;fill:#fbc907;fill-opacity:1;" d="M 0.0742188 62.589844 L 65.84375 110.421875 L 0.0742188 158.839844 L 0.0742188 147.902344 L 52.054688 109.671875 L 0.0742188 71.289062 L 0.0742188 62.589844 "/><path style=" stroke:none;fill-rule:evenodd;fill:#2e2d2d;fill-opacity:1;" d="M 0.0742188 71.289062 L 52.054688 109.671875 L 0.0742188 147.902344 Z M 0.0742188 71.289062 "/><g clip-rule="nonzero" clip-path="url(#6d77491612)"><path style=" stroke:none;fill-rule:evenodd;fill:#3653ac;fill-opacity:1;" d="M 24.949219 187.480469 L 92.367188 137.851562 L 224.804688 137.851562 L 224.804688 187.480469 L 24.949219 187.480469 "/></g></g></svg>