<svg xmlns="http://www.w3.org/2000/svg" xmlns:xlink="http://www.w3.org/1999/xlink" width="500" zoomAndPan="magnify" viewBox="0 0 375 374.999991" height="500" preserveAspectRatio="xMidYMid meet" version="1.2"><defs><clipPath id="87653d60cb"><path d="M 54.425781 69 L 307 69 L 307 321.199219 L 54.425781 321.199219 Z M 54.425781 69 "/></clipPath></defs><g id="3ef6a22b0b"><path style=" stroke:none;fill-rule:nonzero;fill:#af4c0f;fill-opacity:1;" d="M 314.390625 69.078125 L 295.476562 56.582031 C 290.617188 53.367188 283.53125 55.511719 279.660156 61.375 L 198.046875 184.859375 C 196.082031 187.835938 195.332031 191.191406 195.699219 194.203125 L 192.984375 213.804688 L 189.769531 237.089844 L 209.929688 225.003906 L 226.898438 214.824219 C 229.8125 213.984375 232.609375 211.976562 234.574219 208.996094 L 316.1875 85.511719 C 320.058594 79.652344 319.257812 72.292969 314.390625 69.078125 Z M 219.582031 186.746094 C 216.242188 191.792969 212.421875 195.144531 211.039062 194.226562 L 205.664062 190.675781 C 204.28125 189.761719 205.863281 184.933594 209.199219 179.878906 L 279.449219 73.578125 C 282.789062 68.53125 286.613281 65.183594 287.996094 66.097656 L 293.371094 69.652344 C 294.753906 70.566406 293.171875 75.394531 289.835938 80.441406 Z M 235.070312 196.984375 C 231.730469 202.03125 227.90625 205.382812 226.527344 204.464844 L 221.148438 200.910156 C 219.765625 199.996094 221.347656 195.164062 224.6875 190.117188 L 294.941406 83.816406 C 298.273438 78.769531 302.101562 75.417969 303.484375 76.332031 L 308.859375 79.886719 C 310.238281 80.800781 308.65625 85.632812 305.324219 90.679688 Z M 235.070312 196.984375 "/><g clip-rule="nonzero" clip-path="url(#87653d60cb)"><path style=" stroke:none;fill-rule:nonzero;fill:#af4c0f;fill-opacity:1;" d="M 284.242188 158.667969 L 284.242188 290.4375 C 284.242188 295.234375 280.355469 299.121094 275.558594 299.121094 L 85.714844 299.121094 C 80.921875 299.121094 77.03125 295.234375 77.03125 290.4375 L 77.03125 100.597656 C 77.03125 95.800781 80.921875 91.910156 85.714844 91.910156 L 245.101562 91.910156 L 259.839844 69.605469 L 65.28125 69.605469 C 59.453125 69.605469 54.726562 74.332031 54.726562 80.160156 L 54.726562 310.875 C 54.726562 316.703125 59.453125 321.429688 65.28125 321.429688 L 295.992188 321.429688 C 301.820312 321.429688 306.546875 316.703125 306.546875 310.875 L 306.546875 124.925781 Z M 284.242188 158.667969 "/></g><path style=" stroke:none;fill-rule:nonzero;fill:#af4c0f;fill-opacity:1;" d="M 223.398438 124.796875 C 223.398438 130.625 218.671875 135.351562 212.84375 135.351562 L 101.933594 135.351562 C 96.105469 135.351562 91.378906 130.625 91.378906 124.796875 L 91.378906 118.753906 C 91.378906 112.925781 96.105469 108.199219 101.933594 108.199219 L 212.84375 108.199219 C 218.671875 108.199219 223.398438 112.925781 223.398438 118.753906 Z M 223.398438 124.796875 "/><path style=" stroke:none;fill-rule:nonzero;fill:#af4c0f;fill-opacity:1;" d="M 195.90625 167.089844 C 195.90625 172.917969 192.167969 177.644531 187.550781 177.644531 L 99.738281 177.644531 C 95.121094 177.644531 91.378906 172.917969 91.378906 167.089844 L 91.378906 161.046875 C 91.378906 155.21875 95.121094 150.492188 99.738281 150.492188 L 187.550781 150.492188 C 192.167969 150.492188 195.90625 155.21875 195.90625 161.046875 Z M 195.90625 167.089844 "/><path style=" stroke:none;fill-rule:nonzero;fill:#af4c0f;fill-opacity:1;" d="M 180.636719 208.417969 C 180.636719 214.246094 177.441406 218.972656 173.5 218.972656 L 98.515625 218.972656 C 94.574219 218.972656 91.382812 214.246094 91.382812 208.417969 L 91.382812 202.378906 C 91.382812 196.546875 94.578125 191.824219 98.515625 191.824219 L 173.5 191.824219 C 177.441406 191.824219 180.632812 196.546875 180.632812 202.378906 L 180.632812 208.417969 Z M 180.636719 208.417969 "/><path style=" stroke:none;fill-rule:nonzero;fill:#af4c0f;fill-opacity:1;" d="M 180.636719 250.703125 C 180.636719 256.535156 177.441406 261.257812 173.5 261.257812 L 98.515625 261.257812 C 94.574219 261.257812 91.382812 256.535156 91.382812 250.703125 L 91.382812 244.664062 C 91.382812 238.835938 94.578125 234.109375 98.515625 234.109375 L 173.5 234.109375 C 177.441406 234.109375 180.636719 238.835938 180.636719 244.664062 Z M 180.636719 250.703125 "/></g></svg>