<svg xmlns="http://www.w3.org/2000/svg" xmlns:xlink="http://www.w3.org/1999/xlink" width="500" zoomAndPan="magnify" viewBox="0 0 375 374.999991" height="500" preserveAspectRatio="xMidYMid meet" version="1.2"><defs><clipPath id="5e25c8a0ae"><path d="M 67 72 L 310 72 L 310 306.925781 L 67 306.925781 Z M 67 72 "/></clipPath></defs><g id="1e73a01080"><g clip-rule="nonzero" clip-path="url(#5e25c8a0ae)"><path style=" stroke:none;fill-rule:nonzero;fill:#af4c0f;fill-opacity:1;" d="M 86.535156 154.546875 L 85.605469 154.546875 C 83.90625 154.546875 82.53125 155.910156 82.53125 157.605469 C 82.53125 159.289062 83.90625 160.667969 85.605469 160.667969 L 86.535156 160.667969 C 88.234375 160.667969 89.609375 159.304688 89.609375 157.605469 C 89.609375 155.910156 88.234375 154.546875 86.535156 154.546875 Z M 266.148438 133.859375 C 266.46875 133.972656 266.800781 134.027344 267.136719 134.027344 C 267.511719 134.027344 267.902344 133.957031 268.261719 133.820312 C 273.964844 131.578125 281.8125 126.140625 285.539062 119.476562 C 289.90625 111.660156 288.476562 106.066406 287.222656 103.425781 C 285.664062 100.128906 282.730469 97.722656 279.574219 97.136719 C 273.367188 95.980469 269.304688 97.945312 266.664062 100.640625 C 262.335938 96.59375 256.703125 95.941406 251.207031 99.085938 C 246.703125 101.671875 241.570312 109.546875 246.992188 119.65625 C 250.722656 126.542969 260.722656 132.023438 266.148438 133.859375 Z M 254.28125 104.34375 C 255.675781 103.550781 256.96875 103.144531 258.207031 103.144531 C 260.460938 103.144531 262.460938 104.496094 264.242188 107.222656 C 264.828125 108.125 265.871094 108.65625 266.925781 108.597656 C 268.011719 108.558594 268.988281 107.960938 269.5 107.011719 C 271.421875 103.523438 274.160156 102.3125 278.433594 103.105469 C 279.445312 103.300781 280.839844 104.257812 281.660156 105.984375 C 282.953125 108.710938 282.410156 112.4375 280.15625 116.472656 C 277.527344 121.175781 271.671875 125.570312 267.039062 127.65625 C 262.074219 125.710938 254.8125 121.203125 252.417969 116.722656 C 247.898438 108.320312 254.226562 104.382812 254.28125 104.34375 Z M 86.648438 144.503906 L 85.257812 144.503906 C 83.558594 144.503906 82.183594 145.867188 82.183594 147.5625 C 82.183594 149.257812 83.558594 150.621094 85.257812 150.621094 L 86.648438 150.621094 C 88.34375 150.621094 89.722656 149.257812 89.722656 147.5625 C 89.722656 145.867188 88.34375 144.503906 86.648438 144.503906 Z M 244.796875 204.679688 C 236.839844 204.679688 230.371094 211.121094 230.371094 219.035156 C 230.371094 226.949219 236.839844 233.390625 244.796875 233.390625 C 252.753906 233.390625 259.222656 226.949219 259.222656 219.035156 C 259.222656 211.121094 252.753906 204.679688 244.796875 204.679688 Z M 244.796875 227.269531 C 240.234375 227.269531 236.519531 223.570312 236.519531 219.019531 C 236.519531 214.472656 240.234375 210.773438 244.796875 210.773438 C 249.359375 210.773438 253.074219 214.472656 253.074219 219.019531 C 253.074219 223.570312 249.359375 227.269531 244.796875 227.269531 Z M 298.253906 146.101562 C 307.683594 136.351562 311.191406 122.886719 308.128906 108.195312 C 304.554688 91.015625 294.414062 79.109375 279.585938 74.644531 C 264.269531 70.039062 246.1875 74.601562 234.570312 86.007812 C 226.210938 94.214844 222.136719 105.039062 222.707031 116.695312 C 219.546875 116.554688 216.363281 116.570312 213.191406 116.738281 C 209.5625 108.878906 204.34375 101.671875 197.613281 95.316406 C 176.816406 75.6875 144.792969 68.382812 117.902344 77.148438 C 91.738281 85.675781 74.238281 107.417969 68.648438 138.367188 C 63.902344 164.589844 70.71875 188.292969 87.828125 205.082031 C 99 216.042969 113.703125 223.207031 129.367188 225.835938 C 131.300781 236.339844 134.761719 246.105469 139.714844 254.839844 C 141.523438 258.027344 141.175781 262.117188 138.851562 265.007812 C 137.394531 266.84375 135.835938 268.683594 134.191406 270.644531 C 129.546875 276.152344 124.746094 281.855469 121.964844 287.433594 C 121.269531 288.839844 121.0625 290.1875 120.9375 291.355469 C 120.476562 295.417969 123.984375 299.714844 127.40625 302.402344 C 130.898438 305.140625 134.636719 306.558594 138.128906 306.558594 C 139.535156 306.558594 140.882812 306.324219 142.179688 305.863281 C 154.058594 301.539062 161.429688 297.949219 170.777344 293.402344 L 173.628906 292.007812 C 176.160156 290.785156 179.195312 290.730469 182.183594 291.828125 C 213.246094 303.375 246.257812 300.496094 270.503906 284.121094 C 293.164062 268.820312 306.003906 242.917969 306.671875 211.175781 C 307.15625 188.027344 301.730469 168.261719 290.5625 152.304688 C 293.359375 150.566406 295.957031 148.480469 298.253906 146.101562 Z M 241.054688 92.546875 C 247.941406 85.785156 257.636719 82.03125 267.164062 82.03125 C 270.488281 82.03125 273.785156 82.488281 276.929688 83.433594 C 288.378906 86.871094 296.25 96.34375 299.117188 110.074219 C 302.21875 124.984375 296.75 134.445312 291.617188 139.757812 C 283.898438 147.742188 272.019531 151.527344 260.597656 149.621094 C 257.425781 149.09375 254.171875 149.941406 251.683594 151.945312 C 249.441406 153.753906 247.382812 155.882812 245.394531 157.925781 C 243.40625 159.972656 241.359375 162.097656 239.132812 163.878906 C 238.175781 164.644531 237.394531 164.589844 237.101562 164.367188 C 236.839844 164.15625 236.910156 163.460938 237.296875 162.667969 C 237.980469 161.238281 238.730469 159.496094 239.523438 157.660156 C 240.457031 155.492188 241.511719 153.015625 242.652344 150.636719 C 244.449219 146.910156 243.863281 142.457031 241.125 139.035156 C 236.839844 133.679688 234.90625 130.160156 233.429688 125.097656 C 229.773438 112.523438 232.484375 100.960938 241.054688 92.546875 Z M 94.296875 198.558594 C 79.414062 183.9375 73.515625 163.140625 77.714844 139.980469 C 82.683594 112.507812 97.984375 93.285156 120.785156 85.855469 C 144.542969 78.105469 172.863281 84.589844 191.28125 101.976562 C 208.460938 118.210938 214.191406 140.871094 207.40625 165.828125 C 204.679688 175.871094 198.945312 186.929688 192.796875 193.996094 C 188.929688 198.449219 188.070312 204.914062 190.476562 211.285156 C 191.15625 213.109375 191.726562 214.613281 192.214844 215.917969 C 193.800781 220.160156 194.675781 222.511719 196.609375 227.074219 C 197.484375 229.160156 196.957031 230.84375 196.082031 231.527344 C 194.996094 232.390625 193.453125 231.527344 192.617188 230.929688 C 186.121094 226.28125 183.089844 223.960938 178.511719 220.441406 C 177.121094 219.382812 175.589844 218.199219 173.769531 216.808594 C 171.945312 215.417969 169.625 214.917969 167.007812 214.917969 C 164.183594 214.917969 161.011719 215.5 157.757812 216.195312 C 157.203125 216.324219 156.6875 216.417969 156.253906 216.503906 C 133.761719 220.871094 110.03125 213.984375 94.296875 198.558594 Z M 265.3125 276.570312 C 243.542969 291.273438 213.664062 293.777344 185.398438 283.261719 C 180.015625 281.257812 174.410156 281.453125 169.582031 283.789062 L 166.714844 285.179688 C 157.617188 289.601562 150.425781 293.109375 139.007812 297.269531 C 138.128906 297.585938 136.765625 297.351562 135.277344 296.601562 C 133.554688 295.738281 132.121094 294.484375 131.1875 293.414062 C 142.664062 288.878906 159.675781 281.367188 172.796875 275.316406 C 176.246094 273.730469 179.863281 274.355469 182.28125 275.164062 C 210.925781 284.75 239.550781 283.273438 262.921875 271.019531 C 273.117188 265.664062 281.8125 258.429688 288.667969 249.777344 C 283.257812 260.710938 275.425781 269.726562 265.3125 276.570312 Z M 297.449219 211.007812 C 297.378906 214.304688 297.15625 217.503906 296.820312 220.632812 C 296.808594 220.675781 296.78125 220.71875 296.765625 220.761719 C 291.242188 240.164062 278.195312 256.105469 260.054688 265.621094 C 238.203125 277.082031 211.273438 278.417969 184.242188 269.378906 C 179.25 267.707031 174.410156 267.847656 170.222656 269.765625 C 158.953125 274.96875 144.808594 281.230469 133.859375 285.734375 C 136.058594 282.71875 138.6875 279.585938 141.273438 276.527344 C 142.886719 274.621094 144.542969 272.644531 146.085938 270.710938 C 150.71875 264.925781 151.386719 256.734375 147.769531 250.332031 C 143.734375 243.226562 140.785156 235.339844 138.980469 226.851562 C 145.308594 227.160156 151.71875 226.726562 158.035156 225.503906 C 158.523438 225.40625 159.09375 225.292969 159.707031 225.15625 C 161.457031 224.78125 166.742188 223.667969 168.34375 224.195312 C 170.097656 225.53125 171.585938 226.671875 172.933594 227.703125 C 177.582031 231.261719 180.667969 233.613281 187.277344 238.355469 C 189.78125 240.152344 192.492188 241.054688 195.078125 241.054688 C 197.515625 241.054688 199.851562 240.261719 201.855469 238.675781 C 206.195312 235.242188 207.515625 229.132812 205.136719 223.5 C 203.285156 219.105469 202.4375 216.835938 200.878906 212.707031 C 200.378906 211.382812 199.824219 209.867188 199.128906 208.046875 C 198.542969 206.515625 197.457031 202.664062 199.796875 199.964844 C 206.875 191.796875 213.207031 179.625 216.320312 168.191406 C 220.425781 153.125 220.464844 138.742188 216.640625 125.777344 C 219.160156 125.722656 221.675781 125.777344 224.167969 125.933594 C 224.304688 126.488281 224.429688 127.042969 224.597656 127.601562 C 226.421875 133.886719 228.867188 138.367188 233.933594 144.695312 C 234.347656 145.210938 234.667969 145.992188 234.363281 146.644531 C 233.140625 149.203125 232.039062 151.761719 231.066406 154.015625 C 230.316406 155.769531 229.605469 157.410156 229.007812 158.664062 C 226.683594 163.492188 227.628906 168.539062 231.414062 171.515625 C 233.207031 172.933594 235.390625 173.632812 237.632812 173.632812 C 240.164062 173.632812 242.75 172.742188 244.949219 170.972656 C 247.621094 168.832031 249.875 166.496094 252.058594 164.242188 C 253.933594 162.308594 255.703125 160.472656 257.496094 159.023438 C 257.941406 158.664062 258.527344 158.523438 259.109375 158.621094 C 266.941406 159.929688 274.941406 159.082031 282.203125 156.410156 C 292.757812 170.960938 297.90625 189.308594 297.449219 211.007812 Z M 261.390625 186.5 C 247.71875 185.871094 242.179688 185.871094 228.507812 186.5 C 219.480469 186.914062 213.121094 193.230469 212.703125 202.21875 C 212.078125 215.820312 212.078125 221.332031 212.703125 234.949219 C 213.121094 243.933594 219.464844 250.25 228.507812 250.667969 C 235.351562 250.988281 240.148438 251.140625 244.949219 251.140625 C 249.75 251.140625 254.546875 250.988281 261.390625 250.667969 C 270.417969 250.25 276.777344 243.933594 277.195312 234.949219 C 277.820312 221.34375 277.820312 215.835938 277.195312 202.21875 C 276.761719 193.230469 270.417969 186.914062 261.390625 186.5 Z M 267.984375 234.53125 C 267.789062 238.828125 265.300781 241.320312 260.972656 241.515625 C 247.648438 242.125 242.25 242.125 228.925781 241.515625 C 224.597656 241.320312 222.109375 238.828125 221.914062 234.53125 C 221.300781 221.273438 221.300781 215.90625 221.914062 202.648438 C 222.109375 198.351562 224.597656 195.859375 228.925781 195.664062 C 235.585938 195.359375 240.261719 195.207031 244.949219 195.207031 C 249.621094 195.207031 254.3125 195.359375 260.972656 195.664062 C 265.300781 195.859375 267.789062 198.351562 267.984375 202.648438 C 268.597656 215.90625 268.597656 221.273438 267.984375 234.53125 Z M 182.210938 173.351562 L 185.355469 160.414062 C 186.59375 155.339844 185.441406 150.066406 182.183594 145.964844 C 178.929688 141.859375 174.0625 139.496094 168.800781 139.496094 L 161.386719 139.496094 C 162.792969 132.34375 161.359375 123.496094 157.660156 118.824219 C 155.546875 116.125 152.75 114.871094 149.785156 115.277344 C 141.621094 116.390625 140.730469 123.398438 140.4375 125.695312 C 139.5625 132.609375 137.433594 135.058594 135.179688 137.644531 C 133.511719 139.5625 131.703125 141.652344 130.480469 145.199219 C 129.851562 145.015625 129.199219 144.878906 128.488281 144.835938 L 127.820312 144.792969 C 124.746094 144.613281 121.578125 144.445312 116.777344 144.835938 C 112.839844 145.15625 109.820312 148.230469 109.765625 151.972656 C 109.597656 163.101562 109.683594 170 109.765625 176.675781 L 109.808594 180.265625 C 109.835938 183.6875 112.324219 186.304688 115.84375 186.636719 C 117.222656 186.761719 119.992188 186.886719 122.800781 186.886719 C 124.929688 186.886719 127.085938 186.816406 128.683594 186.625 C 129.882812 186.484375 131.117188 186.023438 132.191406 185.273438 C 133.414062 186.121094 134.890625 186.636719 136.488281 186.636719 L 165.796875 186.636719 C 173.476562 186.59375 180.363281 180.988281 182.210938 173.351562 Z M 129.046875 177.707031 C 129.046875 177.777344 129.019531 177.859375 129.019531 177.929688 L 129.019531 178.652344 C 129.003906 179.027344 129.003906 179.402344 128.992188 179.765625 C 128.976562 180.445312 128.15625 180.574219 127.988281 180.585938 C 124.84375 180.960938 118.433594 180.765625 116.457031 180.574219 C 115.984375 180.53125 115.984375 180.433594 115.984375 180.222656 L 115.941406 176.621094 C 115.859375 169.988281 115.789062 163.128906 115.941406 152.082031 C 115.957031 151.386719 116.777344 151 117.320312 150.941406 C 119.253906 150.777344 120.882812 150.71875 122.371094 150.71875 C 124.234375 150.71875 125.847656 150.816406 127.515625 150.902344 L 128.183594 150.941406 C 128.546875 150.957031 128.835938 151.054688 129.003906 151.125 C 129.199219 156.9375 129.253906 168.707031 129.046875 177.707031 Z M 136.53125 180.558594 C 135.777344 180.558594 135.167969 179.945312 135.167969 179.210938 L 135.167969 178.707031 C 135.363281 170.875 135.347656 160.679688 135.222656 154.058594 C 135.238281 153.976562 135.25 153.90625 135.25 153.824219 C 135.542969 146.601562 137.433594 144.417969 139.839844 141.652344 C 142.457031 138.632812 145.433594 135.222656 146.546875 126.472656 C 147.046875 122.511719 148.257812 121.660156 150.636719 121.339844 C 150.925781 121.300781 151.71875 121.1875 152.832031 122.605469 C 155.628906 126.15625 156.589844 134.109375 155.058594 139.621094 C 153.738281 139.96875 152.765625 141.148438 152.765625 142.570312 C 152.765625 144.25 154.140625 145.628906 155.839844 145.628906 L 168.816406 145.628906 C 172.167969 145.628906 175.285156 147.132812 177.371094 149.761719 C 179.457031 152.390625 180.179688 155.757812 179.402344 158.996094 L 176.257812 171.933594 C 175.046875 176.898438 170.652344 180.53125 165.8125 180.574219 L 136.53125 180.574219 Z M 88.425781 134.375 L 86.3125 134.375 C 84.617188 134.375 83.238281 135.738281 83.238281 137.4375 C 83.238281 139.117188 84.617188 140.496094 86.3125 140.496094 L 88.425781 140.496094 C 90.125 140.496094 91.5 139.132812 91.5 137.4375 C 91.5 135.738281 90.125 134.375 88.425781 134.375 Z M 88.425781 134.375 "/></g></g></svg>