<svg xmlns="http://www.w3.org/2000/svg" xmlns:xlink="http://www.w3.org/1999/xlink" width="500" zoomAndPan="magnify" viewBox="0 0 375 374.999991" height="500" preserveAspectRatio="xMidYMid meet" version="1.2"><defs><clipPath id="50c941583d"><path d="M 71.15625 127 L 303.65625 127 L 303.65625 298.078125 L 71.15625 298.078125 Z M 71.15625 127 "/></clipPath><clipPath id="a75024dbea"><path d="M 114 76.828125 L 261 76.828125 L 261 171 L 114 171 Z M 114 76.828125 "/></clipPath></defs><g id="e8d31d71d9"><g clip-rule="nonzero" clip-path="url(#50c941583d)"><path style=" stroke:none;fill-rule:nonzero;fill:#af4c0f;fill-opacity:1;" d="M 301.816406 159.972656 L 301.8125 159.960938 C 300.128906 155.125 297.234375 150.738281 293.316406 147.28125 L 286.113281 140.910156 C 285.707031 140.550781 285.292969 140.207031 284.871094 139.871094 L 270.179688 128.222656 L 270.179688 151.171875 L 274.066406 154.257812 L 274.082031 154.269531 C 275.105469 155.082031 276.0625 155.957031 276.964844 156.886719 L 274.246094 159.074219 L 188.371094 228.128906 L 101.292969 159.070312 L 98.378906 156.757812 C 99.234375 155.875 100.140625 155.035156 101.113281 154.257812 L 105.179688 150.988281 L 105.179688 127.921875 L 89.839844 140.246094 L 81.949219 147.28125 C 78.058594 150.753906 75.191406 155.136719 73.523438 159.957031 L 73.507812 159.980469 L 73.511719 159.984375 C 72.441406 163.109375 71.867188 166.417969 71.867188 169.792969 L 71.867188 272.453125 C 71.867188 286.65625 83.382812 298.171875 97.582031 298.171875 L 277.785156 298.171875 C 291.984375 298.171875 303.5 286.65625 303.5 272.453125 L 303.5 169.875 C 303.496094 166.464844 302.910156 163.125 301.816406 159.972656 Z M 89.851562 269.300781 L 89.851562 177.765625 C 89.851562 176.234375 89.980469 174.722656 90.203125 173.234375 L 143.585938 215.566406 Z M 104.398438 280.1875 L 157.769531 226.8125 L 182.820312 246.675781 C 184.464844 247.984375 186.433594 248.625 188.414062 248.625 C 190.40625 248.625 192.40625 247.964844 194.039062 246.640625 L 218.21875 227.199219 L 271.207031 280.1875 Z M 285.511719 269.058594 L 232.316406 215.867188 L 285.160156 173.367188 C 285.386719 174.855469 285.511719 176.371094 285.511719 177.902344 Z M 285.511719 269.058594 "/></g><g clip-rule="nonzero" clip-path="url(#a75024dbea)"><path style=" stroke:none;fill-rule:nonzero;fill:#af4c0f;fill-opacity:1;" d="M 114.421875 108.632812 L 114.421875 157.6875 L 130.265625 170.25 L 130.265625 92.671875 L 245.105469 92.671875 L 245.105469 170.652344 L 260.949219 157.910156 L 260.949219 84.746094 C 260.949219 80.375 257.40625 76.828125 253.03125 76.828125 L 122.339844 76.828125 C 117.964844 76.828125 114.421875 80.375 114.421875 84.746094 Z M 114.421875 108.632812 "/></g><path style=" stroke:none;fill-rule:nonzero;fill:#af4c0f;fill-opacity:1;" d="M 194.355469 160.628906 L 194.074219 160.628906 C 191.894531 166.570312 187.945312 169.542969 182.222656 169.542969 C 177.929688 169.542969 174.46875 167.984375 171.84375 164.875 C 169.210938 161.765625 167.898438 157.453125 167.898438 151.949219 C 167.898438 144.824219 169.71875 139.035156 173.359375 134.570312 C 176.996094 130.105469 181.382812 127.871094 186.519531 127.871094 C 191.152344 127.871094 194.0625 129.691406 195.246094 133.332031 L 195.433594 133.332031 L 195.902344 128.710938 L 206.402344 128.710938 C 205.003906 141.964844 204.300781 150.628906 204.300781 154.703125 C 204.300781 159.058594 205.484375 161.234375 207.847656 161.234375 C 210.332031 161.234375 212.390625 159.589844 214.007812 156.289062 C 215.625 152.992188 216.433594 148.6875 216.433594 143.367188 C 216.433594 136.089844 214.117188 130.125 209.480469 125.472656 C 204.84375 120.820312 198.378906 118.492188 190.070312 118.492188 C 181.171875 118.492188 173.777344 121.597656 167.882812 127.800781 C 161.992188 134.007812 159.042969 141.574219 159.042969 150.5 C 159.042969 159.148438 161.644531 165.960938 166.855469 170.941406 C 172.066406 175.917969 179.257812 178.40625 188.441406 178.40625 C 195.441406 178.40625 201.847656 177.070312 207.664062 174.390625 L 207.664062 183.304688 C 202.34375 185.574219 195.5 186.710938 187.128906 186.710938 C 175.652344 186.710938 166.308594 183.421875 159.109375 176.839844 C 151.90625 170.261719 148.308594 161.417969 148.308594 150.3125 C 148.308594 138.992188 152.152344 129.46875 159.832031 121.757812 C 167.515625 114.042969 177.410156 110.183594 189.511719 110.183594 C 200.710938 110.183594 209.769531 113.175781 216.691406 119.164062 C 223.613281 125.152344 227.078125 133.046875 227.078125 142.84375 C 227.078125 150.902344 224.960938 157.363281 220.730469 162.234375 C 216.496094 167.101562 211.257812 169.539062 205.003906 169.539062 C 201.921875 169.539062 199.421875 168.710938 197.488281 167.066406 C 195.550781 165.417969 194.507812 163.273438 194.355469 160.628906 Z M 188.148438 135.992188 C 185.347656 135.992188 183.066406 137.585938 181.3125 140.773438 C 179.550781 143.960938 178.675781 147.65625 178.675781 151.855469 C 178.675781 154.84375 179.273438 157.167969 180.472656 158.832031 C 181.667969 160.496094 183.21875 161.324219 185.117188 161.324219 C 188.039062 161.324219 190.339844 159.753906 192.023438 156.613281 C 193.703125 153.472656 194.542969 149.269531 194.542969 144.015625 C 194.542969 141.527344 193.960938 139.566406 192.796875 138.136719 C 191.625 136.707031 190.074219 135.992188 188.148438 135.992188 Z M 188.148438 135.992188 "/></g></svg>