<svg xmlns="http://www.w3.org/2000/svg" xmlns:xlink="http://www.w3.org/1999/xlink" width="500" zoomAndPan="magnify" viewBox="0 0 375 374.999991" height="500" preserveAspectRatio="xMidYMid meet" version="1.2"><defs><clipPath id="c662fdd866"><path d="M 0.964844 1.5 L 182.515625 1.5 L 182.515625 243.570312 L 0.964844 243.570312 Z M 0.964844 1.5 "/></clipPath><clipPath id="543b8d1e63"><path d="M 92 141 L 219 141 L 219 301.5 L 92 301.5 Z M 92 141 "/></clipPath><clipPath id="b92dff959d"><rect x="0" width="220" y="0" height="302"/></clipPath></defs><g id="765eb92656"><g transform="matrix(1,0,0,1,77,36)"><g clip-path="url(#b92dff959d)"><g clip-rule="nonzero" clip-path="url(#c662fdd866)"><path style=" stroke:none;fill-rule:nonzero;fill:#f7a41b;fill-opacity:1;" d="M 169.277344 48.402344 L 135.613281 14.738281 C 128.050781 7.171875 113.675781 1.5 103.464844 1.5 L 19.875 1.5 C 9.285156 1.5 0.964844 9.820312 0.964844 20.410156 L 0.964844 224.65625 C 0.964844 235.246094 9.285156 243.570312 19.875 243.570312 L 163.605469 243.570312 C 174.195312 243.570312 182.515625 235.246094 182.515625 224.65625 L 182.515625 80.550781 C 182.515625 69.960938 176.464844 55.585938 169.277344 48.402344 Z M 144.691406 209.148438 L 38.785156 209.148438 C 34.625 209.148438 31.222656 205.746094 31.222656 201.585938 C 31.222656 197.425781 34.625 194.019531 38.785156 194.019531 L 144.691406 194.019531 C 148.851562 194.019531 152.257812 197.425781 152.257812 201.585938 C 152.257812 205.746094 148.851562 209.148438 144.691406 209.148438 Z M 144.691406 178.890625 L 38.785156 178.890625 C 34.625 178.890625 31.222656 175.488281 31.222656 171.328125 C 31.222656 167.164062 34.625 163.761719 38.785156 163.761719 L 144.691406 163.761719 C 148.851562 163.761719 152.257812 167.164062 152.257812 171.328125 C 152.257812 175.488281 148.851562 178.890625 144.691406 178.890625 Z M 144.691406 148.632812 L 38.785156 148.632812 C 34.625 148.632812 31.222656 145.226562 31.222656 141.066406 C 31.222656 136.90625 34.625 133.503906 38.785156 133.503906 L 144.691406 133.503906 C 148.851562 133.503906 152.257812 136.90625 152.257812 141.066406 C 152.257812 145.226562 148.851562 148.632812 144.691406 148.632812 Z M 144.691406 118.375 L 38.785156 118.375 C 34.625 118.375 31.222656 114.96875 31.222656 110.808594 C 31.222656 106.648438 34.625 103.246094 38.785156 103.246094 L 144.691406 103.246094 C 148.851562 103.246094 152.257812 106.648438 152.257812 110.808594 C 152.257812 114.96875 148.851562 118.375 144.691406 118.375 Z M 159.820312 72.984375 L 122 72.984375 C 115.566406 72.984375 110.652344 68.070312 110.652344 61.640625 L 110.652344 23.816406 C 110.652344 17.386719 114.433594 15.871094 118.59375 20.410156 L 163.226562 65.042969 C 167.386719 69.582031 166.25 72.984375 159.820312 72.984375 Z M 159.820312 72.984375 "/></g><g clip-rule="nonzero" clip-path="url(#543b8d1e63)"><path style=" stroke:none;fill-rule:evenodd;fill:#8d3304;fill-opacity:1;" d="M 171.59375 270.625 L 181.972656 294.71875 L 193.578125 276.011719 L 215.148438 280.429688 L 201.695312 249.195312 C 193.277344 252.785156 193.847656 254.375 188.699219 262.253906 C 184.871094 268.105469 178.316406 271.207031 171.59375 270.625 Z M 155.886719 175.144531 L 179.367188 185.207031 L 179.367188 204.195312 C 179.367188 218.128906 169.390625 228.886719 155.886719 231.242188 C 142.386719 228.886719 132.40625 218.128906 132.40625 204.195312 L 132.40625 185.207031 Z M 152.773438 205.285156 L 147.472656 199.984375 C 146.097656 198.613281 143.871094 198.613281 142.496094 199.984375 C 141.125 201.359375 141.125 203.585938 142.496094 204.960938 L 150.292969 212.757812 C 151.667969 214.128906 153.894531 214.128906 155.269531 212.757812 C 159.96875 208.058594 164.613281 203.304688 169.289062 198.585938 C 170.652344 197.210938 170.648438 194.988281 169.273438 193.621094 C 167.898438 192.253906 165.671875 192.257812 164.304688 193.636719 Z M 163.835938 143.722656 C 176.296875 153.046875 173.46875 152.019531 189.007812 152.882812 C 194.976562 153.214844 199.824219 157.28125 201.1875 163.101562 C 204.738281 178.253906 203.234375 175.652344 214.582031 186.300781 C 218.941406 190.390625 220.039062 196.625 217.34375 201.957031 C 210.320312 215.847656 210.84375 212.886719 212.691406 228.339844 C 213.402344 234.273438 210.238281 239.753906 204.742188 242.105469 C 190.4375 248.234375 192.738281 246.300781 184.222656 259.324219 C 180.949219 264.328125 175.003906 266.492188 169.28125 264.761719 C 154.382812 260.261719 157.390625 260.261719 142.496094 264.761719 C 136.773438 266.492188 130.828125 264.328125 127.554688 259.324219 C 119.035156 246.300781 121.339844 248.234375 107.035156 242.105469 C 101.539062 239.753906 98.375 234.273438 99.085938 228.339844 C 100.933594 212.886719 101.453125 215.847656 94.433594 201.957031 C 91.738281 196.625 92.835938 190.390625 97.195312 186.300781 C 108.542969 175.652344 107.039062 178.253906 110.589844 163.101562 C 111.953125 157.28125 116.800781 153.214844 122.765625 152.882812 C 138.304688 152.019531 135.480469 153.046875 147.9375 143.722656 C 152.722656 140.140625 159.050781 140.140625 163.835938 143.722656 Z M 155.886719 162.722656 C 133.539062 162.722656 115.417969 180.84375 115.417969 203.191406 C 115.417969 225.542969 133.539062 243.664062 155.886719 243.664062 C 178.238281 243.664062 196.359375 225.542969 196.359375 203.191406 C 196.359375 180.84375 178.238281 162.722656 155.886719 162.722656 Z M 129.378906 301.488281 L 144.042969 269.882812 C 136.066406 272.292969 127.636719 269.226562 123.078125 262.253906 C 120.230469 257.898438 118.097656 252.855469 113.230469 250.589844 L 96.628906 286.242188 L 118.316406 282.453125 Z M 129.378906 301.488281 "/></g></g></g></g></svg>