<svg xmlns="http://www.w3.org/2000/svg" xmlns:xlink="http://www.w3.org/1999/xlink" width="500" zoomAndPan="magnify" viewBox="0 0 375 374.999991" height="500" preserveAspectRatio="xMidYMid meet" version="1.2"><defs><clipPath id="11d24d260a"><path d="M 1 122 L 238.921875 122 L 238.921875 267 L 1 267 Z M 1 122 "/></clipPath><clipPath id="45d051f322"><rect x="0" width="239" y="0" height="268"/></clipPath></defs><g id="7f060b1fe6"><g transform="matrix(1,0,0,1,69,54)"><g clip-path="url(#45d051f322)"><path style=" stroke:none;fill-rule:nonzero;fill:#f7a41b;fill-opacity:1;" d="M 24.605469 29.207031 C 27.761719 28.695312 28.84375 33.539062 25.15625 34.511719 C 21.585938 34.433594 21.089844 29.714844 24.605469 29.207031 Z M 24.605469 29.207031 "/><path style=" stroke:none;fill-rule:nonzero;fill:#f7a41b;fill-opacity:1;" d="M 114.390625 22.996094 C 114.414062 22.996094 114.441406 22.992188 114.464844 22.988281 L 114.585938 22.976562 C 117.984375 22.625 119.007812 27.105469 115.769531 28.410156 C 112.269531 29.132812 111.039062 24.449219 114.390625 22.996094 Z M 114.390625 22.996094 "/><path style=" stroke:none;fill-rule:nonzero;fill:#f7a41b;fill-opacity:1;" d="M 29.292969 77.1875 C 33.082031 77.589844 32.921875 82.738281 29.292969 82.984375 C 27.480469 82.566406 26.710938 81.789062 26.289062 79.925781 C 26.726562 78.25 27.550781 77.5 29.292969 77.1875 Z M 29.292969 77.1875 "/><path style=" stroke:none;fill-rule:nonzero;fill:#f7a41b;fill-opacity:1;" d="M 69.519531 1.453125 C 73.078125 1.453125 73.324219 6.363281 69.519531 7.207031 C 65.914062 6.734375 64.988281 2.078125 69.519531 1.453125 Z M 69.519531 1.453125 "/><path style=" stroke:none;fill-rule:nonzero;fill:#f7a41b;fill-opacity:1;" d="M 95.394531 68.8125 C 98.832031 68.625 99.914062 73.515625 96.089844 74.738281 C 92.597656 74.886719 91.328125 70.21875 95.394531 68.8125 Z M 95.394531 68.8125 "/><path style=" stroke:none;fill-rule:nonzero;fill:#af4c0f;fill-opacity:1;" d="M 48.722656 1.925781 C 49.523438 1.804688 50.273438 2.144531 50.617188 2.921875 C 51.304688 4.484375 49.011719 6.019531 48.214844 7.15625 C 43.90625 13.300781 46.328125 18.988281 44.730469 22.996094 C 43.351562 23.316406 43.109375 20.574219 42.9375 19.664062 C 41.953125 14.367188 42.914062 4.339844 48.722656 1.925781 Z M 48.722656 1.925781 "/><path style=" stroke:none;fill-rule:nonzero;fill:#af4c0f;fill-opacity:1;" d="M 131.964844 0.214844 C 135.339844 -0.1875 133.921875 2.640625 132.75 4.191406 C 129.933594 7.925781 129.835938 12.976562 130.535156 17.410156 C 130.8125 19.171875 132.257812 21.304688 130.371094 22.054688 C 125.796875 18.441406 125.492188 3.335938 131.964844 0.214844 Z M 131.964844 0.214844 "/><path style=" stroke:none;fill-rule:nonzero;fill:#af4c0f;fill-opacity:1;" d="M 156.988281 11.714844 C 158.476562 11.472656 159.496094 11.808594 160.011719 13.28125 C 159.1875 16.058594 156.722656 15.082031 154.378906 15.773438 C 149.300781 17.269531 143.832031 21.054688 141.238281 25.78125 C 139.488281 28.628906 137.582031 26.332031 142.464844 19.945312 C 146.046875 15.261719 151.183594 12.484375 156.988281 11.714844 Z M 156.988281 11.714844 "/><path style=" stroke:none;fill-rule:nonzero;fill:#af4c0f;fill-opacity:1;" d="M 84.078125 54.910156 C 91.042969 54.601562 92.363281 63.933594 85.46875 65.203125 C 77.847656 65.332031 77.039062 55.09375 84.078125 54.910156 Z M 84.078125 54.910156 "/><path style=" stroke:none;fill-rule:nonzero;fill:#f7a41b;fill-opacity:1;" d="M 82.691406 57.425781 C 84.804688 57.46875 89.992188 61.730469 86.75 62.824219 C 84.097656 62.890625 79.542969 58.347656 82.691406 57.425781 Z M 82.691406 57.425781 "/><path style=" stroke:none;fill-rule:nonzero;fill:#af4c0f;fill-opacity:1;" d="M 152.992188 26.117188 C 160.34375 25.597656 161.402344 34.761719 154.484375 36.609375 C 147.308594 37.394531 145.699219 27.863281 152.992188 26.117188 Z M 152.992188 26.117188 "/><path style=" stroke:none;fill-rule:nonzero;fill:#f7a41b;fill-opacity:1;" d="M 154.113281 29.207031 C 155.027344 29.199219 156.042969 30.144531 155.859375 31.101562 C 155.628906 32.304688 153.449219 33.84375 152.460938 34.511719 C 151.523438 34.449219 150.507812 33.601562 150.664062 32.585938 C 150.867188 31.292969 153.082031 29.925781 154.113281 29.207031 Z M 154.113281 29.207031 "/><path style=" stroke:none;fill-rule:nonzero;fill:#af4c0f;fill-opacity:1;" d="M 62.25 16.640625 C 68.960938 16.152344 70.902344 27.238281 63.644531 27.625 C 56.359375 27.769531 53.875 17.460938 62.25 16.640625 Z M 62.25 16.640625 "/><path style=" stroke:none;fill-rule:nonzero;fill:#f7a41b;fill-opacity:1;" d="M 60.894531 19.476562 C 63.191406 19.585938 68.425781 23.789062 64.925781 24.984375 C 61.914062 25.277344 57.609375 20.320312 60.894531 19.476562 Z M 60.894531 19.476562 "/><path style=" stroke:none;fill-rule:nonzero;fill:#af4c0f;fill-opacity:1;" d="M 15.472656 12.167969 C 24.519531 11.355469 33.988281 18.609375 37.847656 26.386719 C 38.257812 27.214844 40.21875 32.070312 37.785156 29.207031 C 33.417969 23.5625 26.191406 17.585938 19.097656 16.058594 C 18.121094 15.847656 14.582031 15.71875 14.054688 15.324219 C 12.320312 14.023438 13.710938 12.296875 15.472656 12.167969 Z M 15.472656 12.167969 "/><path style=" stroke:none;fill-rule:nonzero;fill:#af4c0f;fill-opacity:1;" d="M 101.132812 0.214844 C 101.574219 3.765625 104.039062 8.296875 107.285156 10.0625 C 103.53125 14.21875 97.960938 13.242188 93.308594 13.28125 C 93.457031 12.199219 93.402344 10.855469 93.695312 9.828125 C 93.707031 9.136719 92.421875 8.222656 91.917969 7.824219 C 91.152344 7.523438 90.394531 6.425781 89.859375 5.800781 C 92.128906 4.988281 94.40625 4.234375 96.511719 3.035156 C 98.085938 2.140625 99.46875 0.925781 101.132812 0.214844 Z M 101.132812 0.214844 "/><path style=" stroke:none;fill-rule:nonzero;fill:#f7a41b;fill-opacity:1;" d="M 99.507812 5.304688 C 99.664062 6.898438 100.488281 7.714844 101.132812 9.082031 C 99.070312 9.957031 95.847656 10.703125 93.695312 9.828125 C 93.707031 9.136719 92.421875 8.222656 91.917969 7.824219 C 94.757812 7.382812 96.917969 6.480469 99.507812 5.304688 Z M 99.507812 5.304688 "/><path style=" stroke:none;fill-rule:nonzero;fill:#af4c0f;fill-opacity:1;" d="M 159.726562 69.695312 C 163.992188 69.09375 167.636719 73.414062 169.328125 76.820312 C 167.789062 78.585938 165.859375 80.011719 164.269531 81.746094 C 163.847656 82.210938 161.941406 84.714844 161.605469 84.855469 L 161.507812 84.703125 C 160.707031 83.3125 159.707031 82.03125 158.878906 80.65625 C 156.703125 77.054688 156.046875 73.980469 151.304688 72.796875 C 153.648438 71.589844 157.140625 70.046875 159.726562 69.695312 Z M 159.726562 69.695312 "/><path style=" stroke:none;fill-rule:nonzero;fill:#f7a41b;fill-opacity:1;" d="M 160.011719 72.796875 C 162.183594 72.726562 163.792969 74.703125 165.082031 76.207031 C 164.367188 76.863281 163.601562 77.476562 162.863281 78.101562 L 161.859375 79 C 160.574219 76.738281 160.195312 75.570312 158.441406 73.472656 C 158.957031 73.210938 159.46875 72.992188 160.011719 72.796875 Z M 160.011719 72.796875 "/><path style=" stroke:none;fill-rule:nonzero;fill:#af4c0f;fill-opacity:1;" d="M 130.371094 34.511719 C 135.367188 33.8125 140.269531 38.167969 140.738281 43.046875 C 141.269531 48.609375 137.265625 53.578125 131.679688 54.085938 C 118.84375 54.566406 117.421875 35.726562 130.371094 34.511719 Z M 129.824219 36.609375 C 120.53125 38.367188 122.332031 50.882812 130.925781 49.910156 C 138.609375 48.550781 138.972656 37.519531 129.824219 36.609375 Z M 129.824219 36.609375 "/><path style=" stroke:none;fill-rule:nonzero;fill:#af4c0f;fill-opacity:1;" d="M 49.175781 33.125 C 60.542969 31.96875 65.410156 47.171875 55.210938 51.976562 C 54.304688 52.402344 53.3125 52.679688 52.371094 53.011719 C 39.324219 53.558594 36.171875 35.609375 49.175781 33.125 Z M 50.648438 36.609375 C 42.710938 36.320312 41.859375 48.214844 50.210938 48.835938 C 58.75 48.328125 58.214844 36.460938 50.648438 36.609375 Z M 50.648438 36.609375 "/><path style=" stroke:none;fill-rule:nonzero;fill:#af4c0f;fill-opacity:1;" d="M 80.773438 14.460938 C 85.710938 13.605469 86.691406 17.746094 86.527344 21.449219 L 86.066406 31.308594 C 85.757812 37.730469 86.167969 37.546875 82.609375 42.949219 C 70.535156 61.273438 69.453125 60.085938 76.195312 82.195312 C 79.152344 91.902344 83.816406 109.226562 82.707031 119.488281 C 82.320312 123.09375 78.589844 125.890625 75.011719 124.757812 C 70.226562 123.246094 70.800781 118.902344 70.371094 114.878906 C 69.492188 106.679688 66.015625 98.914062 62.25 91.675781 C 61.535156 100.171875 54.710938 109.566406 49.097656 115.460938 C 45.894531 118.828125 40.703125 124.550781 36.265625 118.359375 C 32.871094 113.523438 37.28125 110.367188 40.140625 107.253906 C 47.304688 99.46875 51.234375 87.867188 47.066406 77.695312 C 44.5625 71.574219 40.113281 69.351562 33.925781 68.210938 C 25.117188 66.585938 27.21875 67.035156 21.769531 59.988281 L 16.5 53.046875 C 15.535156 51.761719 14.414062 50.464844 13.652344 49.050781 C 11.144531 44.398438 16.609375 39.054688 20.914062 42.574219 C 22.058594 43.507812 22.984375 45.0625 23.867188 46.246094 L 28.425781 52.296875 C 29.425781 53.625 30.398438 55.039062 31.53125 56.253906 L 31.632812 56.359375 C 36.96875 55.148438 42.410156 54.828125 47.863281 55.28125 C 54.941406 55.871094 54.617188 57.84375 59.359375 51.851562 C 64.316406 45.585938 69.96875 39.945312 75.816406 34.511719 C 75.769531 30.527344 76.082031 26.558594 76.417969 22.59375 C 76.699219 19.296875 76.480469 15.039062 80.773438 14.460938 Z M 17.210938 45.316406 C 16.902344 45.746094 16.652344 46.128906 16.453125 46.625 C 17.269531 48.304688 18.800781 49.855469 19.957031 51.324219 L 24.550781 57.261719 C 29.480469 63.597656 27.035156 63.105469 34.300781 64.5625 C 39.441406 65.59375 44.132812 67.289062 47.699219 71.210938 C 56.191406 84.097656 52.316406 98.691406 42.757812 109.613281 C 41.082031 111.527344 37.265625 113.832031 39.585938 116.628906 C 41.617188 118.484375 43.203125 116.386719 44.609375 114.886719 L 47.816406 111.453125 C 54.007812 104.800781 58.90625 96.648438 59.359375 87.34375 C 59.449219 85.460938 59.042969 83.542969 61.613281 84 C 63.023438 84.886719 63.820312 87.171875 64.585938 88.628906 C 69.175781 97.355469 73.136719 106.246094 74.136719 116.140625 C 74.269531 117.484375 74.273438 118.890625 74.554688 120.207031 C 74.996094 120.683594 75.421875 121 76.011719 121.265625 C 81.828125 124.019531 77.636719 101.832031 77.035156 99.929688 C 76.566406 99.484375 76 97.234375 75.710938 96.472656 C 67.609375 75.097656 55.914062 60.273438 31.300781 60.914062 L 31.507812 60.804688 C 32.070312 60.5 32.566406 60.140625 33.078125 59.761719 C 32.113281 59.8125 30.824219 60.105469 29.917969 60.460938 L 29.789062 60.480469 C 29.503906 60.410156 22.40625 51.398438 21.304688 49.96875 C 19.523438 47.65625 19.21875 47.230469 17.210938 45.316406 Z M 79.925781 18.886719 C 79.535156 21.53125 79.527344 35.023438 78.804688 36.214844 C 78.011719 37.527344 75.992188 39.222656 74.867188 40.335938 C 70.890625 44.277344 66.902344 48.226562 63.410156 52.613281 C 57.402344 60.15625 58.316406 59.949219 49.441406 59.085938 C 44.070312 58.5625 38.339844 58.382812 33.078125 59.761719 C 32.566406 60.140625 32.070312 60.5 31.507812 60.804688 L 31.300781 60.914062 C 55.914062 60.273438 67.609375 75.097656 75.710938 96.472656 C 76 97.234375 76.566406 99.484375 77.035156 99.929688 C 75.953125 92.894531 73.636719 85.910156 71.585938 79.121094 C 65.886719 60.234375 67.507812 58.585938 78.371094 42.394531 C 79.761719 40.320312 81.574219 38.539062 81.832031 35.96875 C 82.195312 32.292969 83.160156 22.492188 82.90625 19.117188 C 82.785156 17.515625 80.761719 17.53125 79.925781 18.886719 Z M 17.210938 45.316406 C 19.21875 47.230469 19.523438 47.65625 21.304688 49.96875 C 22.40625 51.398438 29.503906 60.410156 29.789062 60.480469 L 29.917969 60.460938 C 29.300781 58.75 27.578125 57.109375 26.507812 55.640625 L 21.675781 49.144531 C 20.902344 48.09375 18.9375 44.207031 17.210938 45.316406 Z M 17.210938 45.316406 "/><path style=" stroke:none;fill-rule:nonzero;fill:#f7a41b;fill-opacity:1;" d="M 17.210938 45.316406 C 19.21875 47.230469 19.523438 47.65625 21.304688 49.96875 C 22.40625 51.398438 29.503906 60.410156 29.789062 60.480469 L 29.917969 60.460938 C 30.824219 60.105469 32.113281 59.8125 33.078125 59.761719 C 32.566406 60.140625 32.070312 60.5 31.507812 60.804688 L 31.300781 60.914062 C 55.914062 60.273438 67.609375 75.097656 75.710938 96.472656 C 76 97.234375 76.566406 99.484375 77.035156 99.929688 C 77.636719 101.832031 81.828125 124.019531 76.011719 121.265625 C 75.421875 121 74.996094 120.683594 74.554688 120.207031 C 74.273438 118.890625 74.269531 117.484375 74.136719 116.140625 C 73.136719 106.246094 69.175781 97.355469 64.585938 88.628906 C 63.820312 87.171875 63.023438 84.886719 61.613281 84 C 59.042969 83.542969 59.449219 85.460938 59.359375 87.34375 C 58.90625 96.648438 54.007812 104.800781 47.816406 111.453125 L 44.609375 114.886719 C 43.203125 116.386719 41.617188 118.484375 39.585938 116.628906 C 37.265625 113.832031 41.082031 111.527344 42.757812 109.613281 C 52.316406 98.691406 56.191406 84.097656 47.699219 71.210938 C 44.132812 67.289062 39.441406 65.59375 34.300781 64.5625 C 27.035156 63.105469 29.480469 63.597656 24.550781 57.261719 L 19.957031 51.324219 C 18.800781 49.855469 17.269531 48.304688 16.453125 46.625 C 16.652344 46.128906 16.902344 45.746094 17.210938 45.316406 Z M 47.699219 71.210938 C 56.191406 84.097656 52.316406 98.691406 42.757812 109.613281 C 41.082031 111.527344 37.265625 113.832031 39.585938 116.628906 C 40.8125 113.761719 40.910156 114.125 43.164062 111.75 C 47.902344 106.761719 52.0625 101.355469 53.769531 94.535156 C 55.15625 88.996094 54.542969 72.914062 47.699219 71.210938 Z M 61.613281 84 C 63.023438 84.886719 63.820312 87.171875 64.585938 88.628906 C 69.175781 97.355469 73.136719 106.246094 74.136719 116.140625 C 74.269531 117.484375 74.273438 118.890625 74.554688 120.207031 C 74.996094 120.683594 75.421875 121 76.011719 121.265625 C 75.269531 119.441406 75.359375 117.578125 75.195312 115.644531 C 74.492188 107.46875 71.417969 96.34375 67.359375 89.515625 C 66.433594 87.964844 63.785156 83.855469 61.613281 84 Z M 61.613281 84 "/><path style=" stroke:none;fill-rule:nonzero;fill:#af4c0f;fill-opacity:1;" d="M 95.074219 24.984375 L 95.363281 24.964844 C 99.964844 24.644531 100.765625 28.464844 101.679688 31.941406 L 103.574219 39.378906 C 104 41.105469 104.359375 42.875 104.949219 44.550781 C 106.277344 45.230469 107.652344 45.84375 108.992188 46.507812 L 116.914062 50.453125 C 119.800781 51.867188 122.753906 53.144531 125.359375 55.046875 C 131.695312 59.675781 130.035156 57.804688 136.761719 54.757812 C 141.316406 52.691406 151 49.851562 156.261719 49.910156 C 157.632812 46.078125 159.832031 41.929688 161.785156 38.375 C 163.058594 36.054688 164.195312 33.304688 167.15625 32.878906 C 170.652344 32.375 173.769531 35.882812 172.769531 39.308594 C 172.503906 40.210938 172.011719 41.011719 171.601562 41.847656 L 169.734375 45.707031 C 168.230469 48.863281 166.664062 51.910156 164.988281 54.976562 C 162.5625 59.414062 162.8125 59.023438 157.96875 60.742188 C 137.160156 68.125 139.808594 77.699219 142.480469 97.507812 C 143.644531 106.152344 144.894531 114.777344 145.878906 123.449219 C 146.457031 130.457031 138.5625 131.917969 136.164062 127.21875 C 135.460938 125.839844 135.082031 124.226562 134.621094 122.746094 L 132.46875 115.917969 C 130.289062 108.78125 128.09375 101.664062 125.789062 94.566406 C 125.183594 95.800781 124.71875 97.109375 124.222656 98.390625 L 113.726562 125.894531 C 111.414062 132.140625 103.917969 130.570312 103.316406 125.085938 C 102.800781 120.375 111.753906 89.394531 113.214844 83.332031 C 114.699219 77.195312 115.089844 70.75 112.640625 64.765625 C 112.277344 63.871094 101.636719 55.070312 100.257812 53.914062 C 99.050781 52.90625 97.519531 51.96875 96.554688 50.730469 C 95.359375 49.199219 93.207031 39.753906 92.542969 37.394531 C 91.261719 32.832031 88.207031 26.835938 95.074219 24.984375 Z M 99.507812 48.5 C 102.152344 50.675781 114.019531 59.761719 115.578125 62.203125 C 121.488281 71.476562 116.285156 83.773438 113.949219 93.253906 C 111.730469 102.238281 110.132812 111.371094 107.960938 120.375 C 107.613281 121.820312 105.363281 127.757812 109.414062 125.964844 C 110.027344 124.929688 110.371094 123.695312 110.796875 122.574219 L 121.625 94.261719 C 122.5 92.035156 123.445312 87.085938 125.789062 86.449219 C 126.199219 86.554688 126.503906 86.660156 126.851562 86.898438 L 126.875 86.914062 C 128.730469 89.042969 135.804688 113.511719 136.855469 117.050781 C 137.46875 119.109375 138.535156 125.941406 140.808594 126.105469 C 143.246094 126.277344 141.425781 118.929688 141.238281 117.863281 C 141.273438 116.925781 141.09375 115.949219 140.980469 115.019531 L 138.449219 94.476562 C 137.375 85.957031 135.214844 76.496094 139.714844 68.546875 C 143.511719 61.839844 152.859375 58.027344 160.011719 56.023438 L 160.382812 55.140625 C 161.480469 53.1875 169.492188 38.449219 169.328125 37.597656 C 168.605469 36.714844 167.5 36.085938 166.492188 36.972656 C 165.203125 38.109375 159.820312 50.558594 158.441406 53.011719 C 151.0625 54.058594 143.695312 55.140625 137.035156 58.769531 C 135.332031 59.695312 133.800781 60.785156 131.855469 61.140625 C 126.777344 62.058594 125.230469 59.003906 121.417969 56.816406 C 117.511719 54.578125 113.402344 52.59375 109.335938 50.667969 C 102.410156 47.386719 102.875 49.164062 100.59375 41.628906 C 99.757812 38.867188 98.886719 36.140625 98.222656 33.328125 C 97.839844 31.71875 97.902344 27.988281 95.363281 28.363281 C 92.699219 28.753906 95.8125 35.527344 96.28125 37.121094 C 97.390625 40.902344 98.371094 44.730469 99.507812 48.5 Z M 99.507812 48.5 "/><path style=" stroke:none;fill-rule:nonzero;fill:#f7a41b;fill-opacity:1;" d="M 169.328125 37.597656 C 169.492188 38.449219 161.480469 53.1875 160.382812 55.140625 L 160.011719 56.023438 C 152.859375 58.027344 143.511719 61.839844 139.714844 68.546875 C 135.214844 76.496094 137.375 85.957031 138.449219 94.476562 L 140.980469 115.019531 C 141.09375 115.949219 141.273438 116.925781 141.238281 117.863281 C 140.707031 117.152344 136.359375 100.148438 135.757812 97.933594 C 132.976562 87.71875 128.714844 76.738281 135.703125 67.179688 C 140.289062 60.910156 152.1875 56.042969 159.726562 54.910156 C 162.40625 51.6875 166.367188 39.421875 169.328125 37.597656 Z M 169.328125 37.597656 "/><path style=" stroke:none;fill-rule:nonzero;fill:#af4c0f;fill-opacity:1;" d="M 155.539062 107.332031 C 142 108.195312 139.542969 89.339844 153.347656 87.003906 C 165 85.722656 169.742188 104.117188 155.539062 107.332031 Z M 153.347656 93.351562 C 148.800781 95.195312 149.683594 101.644531 155.09375 100.9375 C 159.71875 99.15625 158.550781 92.957031 153.347656 93.351562 Z M 153.347656 93.351562 "/><path style=" stroke:none;fill-rule:nonzero;fill:#af4c0f;fill-opacity:1;" d="M 218.816406 104.28125 C 218.792969 101.140625 217.761719 96.023438 222.023438 95.675781 C 226.472656 95.191406 225.375 101.058594 225.347656 103.863281 C 226.832031 104.960938 227.890625 106.195312 228.921875 107.71875 C 231.132812 107.710938 235.460938 107.125 237.082031 108.699219 C 238.386719 109.960938 238.113281 112.085938 236.792969 113.234375 C 234.972656 114.816406 231.210938 114.128906 228.921875 114.027344 C 227.882812 115.476562 226.867188 116.683594 225.347656 117.664062 C 225.308594 121.136719 226.675781 125.496094 222.441406 126.769531 C 217.648438 127.132812 218.78125 120.664062 218.816406 117.664062 C 217.628906 116.617188 216.511719 115.503906 215.894531 114.027344 C 213.671875 114.089844 209.417969 114.710938 207.691406 113.171875 C 206.519531 112.125 206.375 109.78125 207.519531 108.664062 C 209.132812 107.082031 213.800781 107.6875 215.894531 107.71875 C 216.65625 106.351562 217.703125 105.359375 218.816406 104.28125 Z M 222.441406 107.332031 C 218.128906 108.144531 217.445312 113.773438 222.441406 114.027344 C 226.738281 113.75 226.714844 107.851562 222.441406 107.332031 Z M 222.441406 107.332031 "/><path style=" stroke:none;fill-rule:nonzero;fill:#af4c0f;fill-opacity:1;" d="M 13.996094 104.28125 C 13.984375 100.933594 12.855469 97.300781 16.5 95.675781 C 21.496094 95.121094 20.460938 101.066406 20.382812 104.28125 C 21.71875 105.238281 22.863281 106.453125 23.90625 107.71875 C 26.332031 107.738281 30.519531 107.035156 32.4375 108.800781 C 33.628906 109.894531 33.320312 112.035156 32.257812 113.109375 C 30.855469 114.535156 25.957031 114.023438 23.90625 114.027344 C 22.996094 115.597656 21.839844 116.617188 20.382812 117.664062 C 20.363281 120.558594 21.507812 125.074219 18.445312 126.769531 C 12.820312 127.796875 13.996094 121.214844 13.996094 117.664062 C 12.707031 116.539062 11.625 115.511719 10.761719 114.027344 C 8.734375 114.011719 4.324219 114.433594 2.820312 113.179688 C 1.472656 112.054688 1.273438 109.828125 2.511719 108.546875 C 4.117188 106.890625 8.574219 107.738281 10.761719 107.71875 C 11.707031 106.472656 12.898438 105.386719 13.996094 104.28125 Z M 16.5 107.71875 C 12.375 109.183594 13.429688 114.828125 17.976562 114.027344 C 22.210938 112.59375 21.113281 107.21875 16.5 107.71875 Z M 16.5 107.71875 "/><g clip-rule="nonzero" clip-path="url(#11d24d260a)"><path style=" stroke:none;fill-rule:nonzero;fill:#af4c0f;fill-opacity:1;" d="M 135.699219 156.839844 L 160.519531 128.242188 C 162.554688 125.875 164.003906 123.761719 167.167969 122.980469 C 171.65625 122.730469 174.84375 125.78125 178.148438 128.484375 C 185.460938 134.460938 177.195312 141.027344 173.128906 145.722656 C 169.4375 149.984375 165.796875 154.292969 162.183594 158.621094 C 166.542969 162.019531 175.882812 169.542969 179.0625 173.410156 C 175.652344 150.472656 209.40625 148.304688 207.453125 172.492188 C 211.1875 169.242188 214.855469 165.902344 218.511719 162.558594 C 222.914062 158.53125 227.730469 152.628906 234.226562 156.960938 C 237.503906 159.148438 239.3125 164.09375 237.511719 167.769531 C 236.222656 170.414062 233.546875 172.628906 231.566406 174.777344 L 220.257812 187.152344 C 217.84375 189.78125 215.109375 192.40625 213.09375 195.351562 C 212.890625 201.332031 213.085938 207.386719 213.089844 213.378906 C 213.089844 222.441406 212.683594 223.53125 215.105469 232.078125 C 216.316406 236.347656 220.4375 250.089844 220.59375 253.367188 C 220.765625 256.984375 215.953125 257.929688 214.621094 254.644531 C 213.300781 251.394531 212.636719 247.59375 211.753906 244.191406 L 206.886719 225.832031 L 181.132812 225.832031 C 181.988281 228.871094 183.109375 231.832031 184.109375 234.824219 L 189.238281 250.148438 C 190.203125 252.953125 195.539062 262.855469 189.207031 263.136719 C 185.671875 263.292969 182.03125 248.382812 180.769531 244.699219 L 176.484375 232.355469 C 173.449219 223.652344 173.929688 224.230469 173.9375 215.210938 L 173.941406 195.351562 C 168.003906 188.664062 157.351562 177.613281 150.4375 171.804688 C 148.1875 174.640625 145.703125 177.273438 143.414062 180.078125 L 143.40625 200.027344 C 143.410156 204.59375 144.3125 209.015625 141.726562 213.050781 L 141.980469 213.953125 C 144.597656 223.488281 146.222656 233.386719 148.238281 243.074219 L 150.855469 255.597656 C 151.269531 257.5625 153.171875 263.402344 152.058594 265.175781 C 151.175781 266.578125 148.882812 266.734375 147.597656 265.851562 C 145.890625 264.679688 142.941406 247.980469 142.425781 245.433594 L 136.242188 215.933594 L 102.386719 215.933594 C 100.796875 222.566406 99.703125 229.398438 98.472656 236.105469 L 94.21875 258.335938 C 93.8125 260.460938 93.683594 264.796875 91.769531 266.210938 C 90.421875 267.203125 88.230469 267.019531 87.292969 265.542969 C 86.003906 263.511719 87.972656 257.425781 88.429688 255.199219 L 90.851562 242.964844 C 92.472656 232.972656 94.558594 222.980469 96.53125 213.050781 C 94.109375 209.441406 94.710938 205.136719 94.710938 201.007812 L 94.726562 187.320312 C 94.730469 184.910156 94.855469 182.484375 94.722656 180.078125 C 93.003906 177.457031 90.765625 174.691406 88.53125 172.492188 C 85.613281 174.804688 83.019531 177.78125 80.382812 180.425781 L 65.507812 195.351562 L 65.519531 214.042969 C 65.519531 221.640625 65.949219 222.109375 63.59375 229.335938 L 55.707031 253.457031 C 55.023438 255.617188 53.957031 261.484375 52.046875 262.78125 C 50.800781 263.628906 48.480469 263.382812 47.691406 261.988281 C 46.589844 260.042969 48.023438 257.078125 48.621094 255.167969 L 50.472656 249.316406 C 53.003906 241.546875 55.824219 233.722656 57.9375 225.832031 L 32.09375 225.832031 C 31.800781 227.652344 31.253906 229.46875 30.796875 231.253906 L 28.433594 240.414062 C 27.660156 243.433594 26.183594 252.664062 24.457031 254.742188 C 22.644531 256.921875 19.429688 255.738281 19.242188 253.039062 C 19.058594 250.304688 23.691406 233.628906 24.554688 230.085938 C 27.5 217.996094 26.351562 208.257812 26.542969 196.027344 C 22.023438 189.671875 13.746094 181.109375 8.4375 175.15625 C 4.28125 170.496094 -2.328125 165.195312 3.058594 158.53125 C 5.378906 155.660156 10.117188 154.402344 13.46875 156.167969 C 17.347656 158.210938 28.402344 169.859375 32.675781 173.410156 C 31.109375 167.550781 32.984375 161.417969 38.140625 157.875 C 48.949219 150.457031 62.707031 160.015625 59.867188 173.773438 C 65.574219 168.675781 71.480469 163.796875 77.117188 158.621094 C 73.289062 153.894531 69.242188 149.316406 65.3125 144.671875 C 62.125 140.902344 56.605469 136.246094 59.804688 130.8125 C 61.125 128.570312 66.398438 123.875 68.9375 123.285156 C 74.882812 121.90625 80.460938 131.058594 83.984375 135.011719 L 97.804688 150.40625 C 99.972656 152.816406 101.925781 155.628906 104.730469 157.355469 C 104.152344 156.121094 103.492188 154.921875 102.941406 153.675781 C 94.085938 133.535156 126.160156 118.867188 135.328125 139.964844 C 138.167969 146.507812 136.511719 150.664062 134.089844 156.839844 C 134.621094 156.8125 135.164062 156.835938 135.699219 156.839844 Z M 168.351562 129.285156 C 165.550781 131.4375 163.296875 134.703125 160.964844 137.359375 L 144.761719 155.996094 C 138.015625 163.847656 139.914062 164.921875 129.703125 161.464844 C 121.914062 165.523438 116.832031 165.21875 109.238281 161.769531 C 99.339844 164.4375 101.917969 164.191406 94.542969 156.082031 L 76.855469 136.417969 C 74.71875 134.089844 72.667969 131.429688 70.371094 129.285156 C 69.375 130.015625 65.304688 133.367188 65.171875 134.410156 C 65.082031 135.113281 83.164062 156.417969 84.851562 158.621094 C 88.128906 161.699219 90.867188 165.59375 93.761719 169.042969 C 96.808594 172.679688 100.910156 175.5625 101.070312 180.640625 C 101.328125 188.847656 100.25 200.050781 101.160156 207.757812 C 101.523438 210.847656 108.03125 209.773438 110.203125 209.769531 L 130.207031 209.765625 C 139.25 209.804688 137.1875 208.132812 137.15625 199.839844 L 137.148438 185.570312 C 137.136719 175.304688 137.558594 177.011719 144.429688 169.226562 L 164.679688 145.9375 C 168.105469 141.980469 171.636719 138.054688 174.921875 133.980469 C 173.332031 132.695312 170.214844 129.675781 168.351562 129.285156 Z M 118.699219 135.898438 C 104.867188 137.039062 103.503906 157.175781 120.03125 158.621094 C 136.871094 153.988281 131.035156 135.125 118.699219 135.898438 Z M 191.96875 161.464844 C 180.859375 164.601562 183.933594 179.367188 194.734375 178.058594 C 205.097656 175.320312 202.609375 160.277344 191.96875 161.464844 Z M 9.222656 161.769531 C 4.914062 163.84375 9.839844 167.390625 11.597656 169.289062 C 15.734375 173.757812 31.714844 191.605469 32.363281 193.363281 C 33.050781 195.230469 32.671875 215.558594 32.675781 219.5 L 59.246094 219.5 L 59.238281 204.179688 C 59.238281 190.730469 58.015625 194.214844 67.390625 184.613281 C 72.136719 179.675781 79.628906 171.550781 84.851562 167.507812 C 83.480469 166.300781 82.3125 165.089844 81.242188 163.609375 L 66.3125 176.257812 C 64.382812 177.914062 60.585938 182.113281 58.203125 182.824219 C 55.945312 183.496094 36.902344 183.152344 33.503906 183.066406 C 30.128906 179.542969 26.351562 176.453125 22.792969 173.125 C 20.074219 170.578125 12.414062 161.636719 9.222656 161.769531 Z M 44.574219 161.769531 C 34.34375 164.308594 37.597656 179.289062 47.957031 177.375 C 57.390625 174.738281 55.992188 161.152344 44.574219 161.769531 Z M 228.921875 161.769531 C 222.898438 166.054688 209.015625 181.605469 204.824219 182.972656 C 203.027344 183.5625 185.546875 183.660156 183.171875 183.320312 C 179.976562 182.863281 177.628906 179.988281 175.304688 177.996094 L 164.191406 168.410156 C 162.273438 166.753906 160.210938 164.605469 157.859375 163.609375 C 156.589844 164.578125 155.816406 165.414062 155.09375 166.875 C 157.996094 171.59375 168.410156 180.261719 172.652344 184.613281 C 180.996094 191.664062 180.207031 193.617188 180.199219 203.320312 L 180.1875 219.5 L 206.886719 219.5 L 206.875 203.1875 C 206.867188 190.710938 206.660156 192.511719 215.460938 182.984375 L 227.09375 170.316406 C 228.375 168.910156 236.242188 161.859375 228.921875 161.769531 Z M 228.921875 161.769531 "/></g></g></g></g></svg>