<svg xmlns="http://www.w3.org/2000/svg" xmlns:xlink="http://www.w3.org/1999/xlink" width="500" zoomAndPan="magnify" viewBox="0 0 375 374.999991" height="500" preserveAspectRatio="xMidYMid meet" version="1.2"><defs><clipPath id="d8d1bb3133"><path d="M 57.488281 58 L 317.738281 58 L 317.738281 317.117188 L 57.488281 317.117188 Z M 57.488281 58 "/></clipPath></defs><g id="56f9f22b5f"><g clip-rule="nonzero" clip-path="url(#d8d1bb3133)"><path style=" stroke:none;fill-rule:nonzero;fill:#8d3304;fill-opacity:1;" d="M 105.625 112.65625 C 100.90625 112.65625 97.0625 108.8125 97.0625 104.09375 C 97.0625 99.371094 100.90625 95.53125 105.625 95.53125 C 110.347656 95.53125 114.191406 99.371094 114.191406 104.09375 C 114.191406 108.8125 110.347656 112.65625 105.625 112.65625 Z M 93.234375 115.257812 C 90.554688 112.285156 88.875 108.394531 88.875 104.09375 C 88.875 94.855469 96.390625 87.34375 105.625 87.34375 C 114.863281 87.34375 122.375 94.855469 122.375 104.09375 C 122.375 108.394531 120.699219 112.285156 118.019531 115.257812 C 123.289062 117.53125 127.898438 121.230469 131.324219 126.082031 C 135.722656 120.507812 138.367188 113.484375 138.367188 105.835938 C 138.367188 87.75 123.710938 73.09375 105.625 73.09375 C 87.542969 73.09375 72.882812 87.75 72.882812 105.835938 C 72.882812 113.484375 75.53125 120.507812 79.929688 126.082031 C 83.355469 121.230469 87.964844 117.53125 93.234375 115.257812 Z M 86.125 131.4375 C 86.023438 131.59375 85.871094 131.679688 85.753906 131.8125 C 91.269531 136.039062 98.144531 138.578125 105.625 138.578125 C 113.121094 138.578125 120.003906 136.03125 125.519531 131.796875 C 125.402344 131.660156 125.230469 131.59375 125.125 131.4375 C 120.765625 124.804688 113.476562 120.839844 105.625 120.839844 C 97.777344 120.839844 90.484375 124.804688 86.125 131.4375 Z M 277.902344 104.09375 C 277.902344 99.371094 274.0625 95.53125 269.339844 95.53125 C 264.617188 95.53125 260.773438 99.371094 260.773438 104.09375 C 260.773438 108.8125 264.617188 112.65625 269.339844 112.65625 C 274.0625 112.65625 277.902344 108.8125 277.902344 104.09375 Z M 243.640625 126.082031 C 247.066406 121.230469 251.675781 117.53125 256.945312 115.257812 C 254.269531 112.285156 252.589844 108.394531 252.589844 104.09375 C 252.589844 94.855469 260.105469 87.34375 269.339844 87.34375 C 278.574219 87.34375 286.089844 94.855469 286.089844 104.09375 C 286.089844 108.394531 284.410156 112.285156 281.734375 115.257812 C 287.003906 117.53125 291.609375 121.230469 295.039062 126.082031 C 299.4375 120.507812 302.082031 113.484375 302.082031 105.835938 C 302.082031 87.75 287.421875 73.09375 269.339844 73.09375 C 251.257812 73.09375 236.597656 87.75 236.597656 105.835938 C 236.597656 113.484375 239.242188 120.507812 243.640625 126.082031 Z M 249.839844 131.4375 C 249.738281 131.59375 249.585938 131.679688 249.464844 131.8125 C 254.980469 136.039062 261.855469 138.578125 269.339844 138.578125 C 276.832031 138.578125 283.714844 136.03125 289.234375 131.796875 C 289.113281 131.660156 288.941406 131.59375 288.839844 131.4375 C 284.480469 124.804688 277.1875 120.839844 269.339844 120.839844 C 261.488281 120.839844 254.199219 124.804688 249.839844 131.4375 Z M 105.625 236.804688 C 87.542969 236.804688 72.882812 251.464844 72.882812 269.546875 C 72.882812 277.199219 75.53125 284.222656 79.929688 289.796875 C 83.355469 284.945312 87.964844 281.242188 93.234375 278.96875 C 90.554688 276 88.875 272.109375 88.875 267.804688 C 88.875 258.570312 96.390625 251.058594 105.625 251.058594 C 114.863281 251.058594 122.375 258.570312 122.375 267.804688 C 122.375 272.109375 120.699219 276 118.019531 278.96875 C 123.289062 281.242188 127.898438 284.945312 131.324219 289.796875 C 135.722656 284.222656 138.367188 277.199219 138.367188 269.546875 C 138.367188 251.464844 123.710938 236.804688 105.625 236.804688 Z M 105.625 284.554688 C 97.777344 284.554688 90.484375 288.515625 86.125 295.152344 C 86.023438 295.304688 85.871094 295.390625 85.753906 295.527344 C 91.269531 299.75 98.144531 302.289062 105.625 302.289062 C 113.121094 302.289062 120.003906 299.746094 125.519531 295.511719 C 125.402344 295.371094 125.230469 295.308594 125.125 295.152344 C 120.765625 288.515625 113.476562 284.554688 105.625 284.554688 Z M 114.191406 267.804688 C 114.191406 263.082031 110.347656 259.242188 105.625 259.242188 C 100.90625 259.242188 97.0625 263.082031 97.0625 267.804688 C 97.0625 272.527344 100.90625 276.367188 105.625 276.367188 C 110.347656 276.367188 114.191406 272.527344 114.191406 267.804688 Z M 277.902344 267.804688 C 277.902344 263.082031 274.0625 259.242188 269.339844 259.242188 C 264.617188 259.242188 260.773438 263.082031 260.773438 267.804688 C 260.773438 272.527344 264.617188 276.367188 269.339844 276.367188 C 274.0625 276.367188 277.902344 272.527344 277.902344 267.804688 Z M 269.339844 236.804688 C 251.257812 236.804688 236.597656 251.464844 236.597656 269.546875 C 236.597656 277.199219 239.242188 284.222656 243.640625 289.796875 C 247.066406 284.945312 251.675781 281.242188 256.945312 278.96875 C 254.269531 276 252.589844 272.109375 252.589844 267.804688 C 252.589844 258.570312 260.105469 251.058594 269.339844 251.058594 C 278.574219 251.058594 286.089844 258.570312 286.089844 267.804688 C 286.089844 272.109375 284.410156 276 281.734375 278.96875 C 287.003906 281.242188 291.609375 284.945312 295.039062 289.796875 C 299.4375 284.222656 302.082031 277.199219 302.082031 269.546875 C 302.082031 251.464844 287.421875 236.804688 269.339844 236.804688 Z M 269.339844 284.554688 C 261.488281 284.554688 254.199219 288.515625 249.839844 295.152344 C 249.738281 295.304688 249.585938 295.390625 249.464844 295.527344 C 254.980469 299.75 261.855469 302.289062 269.339844 302.289062 C 276.832031 302.289062 283.714844 299.746094 289.234375 295.511719 C 289.113281 295.371094 288.941406 295.308594 288.839844 295.152344 C 284.480469 288.515625 277.1875 284.554688 269.339844 284.554688 Z M 237.578125 295.304688 C 235.832031 293.121094 234.25 290.828125 233.050781 288.320312 C 218.859375 294.8125 203.253906 298.195312 187.484375 298.195312 C 187.148438 298.195312 186.8125 298.171875 186.476562 298.171875 L 190.375 294.269531 C 191.976562 292.671875 191.976562 290.082031 190.375 288.480469 C 188.777344 286.882812 186.1875 286.882812 184.589844 288.480469 L 175.527344 297.542969 C 163.882812 296.273438 152.503906 293.164062 141.917969 288.320312 C 140.714844 290.828125 139.132812 293.121094 137.386719 295.304688 C 148.964844 300.6875 161.382812 304.167969 174.105469 305.613281 L 184.589844 316.097656 C 185.386719 316.898438 186.433594 317.296875 187.484375 317.296875 C 188.53125 317.296875 189.578125 316.898438 190.375 316.097656 C 191.976562 314.5 191.976562 311.910156 190.375 310.308594 L 186.417969 306.355469 C 186.773438 306.355469 187.128906 306.382812 187.484375 306.382812 C 204.835938 306.382812 221.972656 302.5625 237.578125 295.304688 Z M 137.386719 80.078125 C 139.132812 82.261719 140.714844 84.550781 141.917969 87.0625 C 156.105469 80.566406 171.710938 77.183594 187.484375 77.183594 C 187.820312 77.183594 188.152344 77.207031 188.488281 77.210938 L 184.589844 81.113281 C 182.992188 82.710938 182.992188 85.300781 184.589844 86.898438 C 185.386719 87.699219 186.433594 88.097656 187.484375 88.097656 C 188.53125 88.097656 189.578125 87.699219 190.375 86.898438 L 199.4375 77.839844 C 211.082031 79.105469 222.460938 82.214844 233.050781 87.0625 C 234.25 84.550781 235.832031 82.261719 237.578125 80.078125 C 226.003906 74.695312 213.582031 71.210938 200.859375 69.769531 L 190.375 59.285156 C 188.777344 57.683594 186.1875 57.683594 184.589844 59.285156 C 182.992188 60.882812 182.992188 63.472656 184.589844 65.070312 L 188.546875 69.027344 C 188.191406 69.023438 187.839844 69 187.484375 69 C 170.128906 69 152.992188 72.820312 137.386719 80.078125 Z M 79.867188 237.785156 C 82.050781 236.039062 84.34375 234.457031 86.855469 233.257812 C 80.359375 219.070312 76.976562 203.460938 76.976562 187.691406 C 76.976562 187.355469 77 187.019531 77.003906 186.683594 L 80.90625 190.585938 C 81.703125 191.382812 82.75 191.785156 83.796875 191.785156 C 84.847656 191.785156 85.890625 191.382812 86.691406 190.585938 C 88.289062 188.984375 88.289062 186.394531 86.691406 184.796875 L 77.628906 175.734375 C 78.898438 164.089844 82.007812 152.710938 86.855469 142.125 C 84.34375 140.921875 82.050781 139.339844 79.867188 137.59375 C 74.484375 149.132812 71.003906 161.574219 69.558594 174.316406 L 59.074219 184.796875 C 57.476562 186.394531 57.476562 188.984375 59.074219 190.585938 C 60.675781 192.183594 63.265625 192.183594 64.863281 190.585938 L 68.820312 186.628906 C 68.816406 186.984375 68.792969 187.335938 68.792969 187.691406 C 68.792969 205.042969 72.609375 222.234375 79.867188 237.785156 Z M 315.890625 184.796875 C 314.292969 183.199219 311.699219 183.199219 310.101562 184.796875 L 306.144531 188.753906 C 306.148438 188.398438 306.175781 188.046875 306.175781 187.691406 C 306.175781 170.335938 302.355469 153.148438 295.097656 137.59375 C 292.914062 139.339844 290.621094 140.921875 288.113281 142.125 C 294.605469 156.3125 297.988281 171.917969 297.988281 187.691406 C 297.988281 188.027344 297.964844 188.363281 297.960938 188.699219 L 294.0625 184.796875 C 292.460938 183.199219 289.871094 183.199219 288.273438 184.796875 C 286.675781 186.394531 286.675781 188.984375 288.273438 190.585938 L 297.335938 199.644531 C 296.066406 211.292969 292.957031 222.671875 288.113281 233.257812 C 290.621094 234.457031 292.914062 236.039062 295.097656 237.785156 C 300.480469 226.25 303.964844 213.808594 305.40625 201.066406 L 315.890625 190.585938 C 317.488281 188.984375 317.488281 186.394531 315.890625 184.796875 Z M 245.984375 190.582031 L 245.984375 164.988281 C 245.984375 155.546875 238.398438 147.910156 228.957031 147.910156 L 169.203125 147.910156 C 160.960938 147.910156 154.085938 153.746094 152.503906 161.550781 L 207.128906 161.550781 C 221.042969 161.550781 232.339844 172.902344 232.339844 186.816406 L 232.339844 207.28125 C 240.144531 205.699219 245.984375 198.878906 245.984375 190.582031 Z M 201.507812 235.003906 C 200.742188 240.570312 201.890625 245.152344 202.871094 247.9375 C 200.253906 247.5 191.683594 245.644531 185.792969 238.003906 C 183.390625 234.894531 182.191406 231.785156 181.535156 229.4375 L 147.375 229.4375 C 137.933594 229.4375 130.347656 221.851562 130.347656 212.410156 L 130.347656 186.816406 C 130.347656 177.378906 137.933594 169.738281 147.375 169.738281 L 207.128906 169.738281 C 216.570312 169.738281 224.15625 177.378906 224.15625 186.816406 L 224.15625 212.410156 C 224.15625 221.851562 216.570312 229.4375 207.128906 229.4375 L 202.871094 229.4375 C 202.273438 231.019531 201.78125 232.875 201.507812 235.003906 Z M 155.449219 197.023438 C 155.449219 194.019531 152.992188 191.566406 149.992188 191.566406 C 146.9375 191.566406 144.535156 194.019531 144.535156 197.023438 C 144.535156 200.023438 146.9375 202.480469 149.992188 202.480469 C 152.992188 202.480469 155.449219 200.023438 155.449219 197.023438 Z M 182.734375 197.023438 C 182.734375 194.019531 180.28125 191.566406 177.277344 191.566406 C 174.222656 191.566406 171.820312 194.019531 171.820312 197.023438 C 171.820312 200.023438 174.222656 202.480469 177.277344 202.480469 C 180.28125 202.480469 182.734375 200.023438 182.734375 197.023438 Z M 204.5625 202.480469 C 207.566406 202.480469 210.019531 200.023438 210.019531 197.023438 C 210.019531 194.019531 207.566406 191.566406 204.5625 191.566406 C 201.507812 191.566406 199.105469 194.019531 199.105469 197.023438 C 199.105469 200.023438 201.507812 202.480469 204.5625 202.480469 Z M 204.5625 202.480469 "/></g></g></svg>